<svg width="312" height="312" viewBox="0 0 312 312" fill="none" xmlns="http://www.w3.org/2000/svg">
<rect width="312" height="312" fill="#030303"/>
<path d="M181.615 225.435V228.622L224.134 253.374C225.01 253.905 225.913 254.144 226.763 254.17C227.666 254.17 228.595 253.905 229.445 253.4C230.322 252.922 230.985 252.258 231.437 251.488C231.862 250.744 232.101 249.815 232.101 248.806V178.109L183.66 220.84V220.867C182.969 221.478 182.438 222.168 182.119 222.885C181.774 223.629 181.615 224.479 181.615 225.435V225.435ZM181.615 242.724V283.782C181.615 286.942 180.792 289.943 179.278 292.546C177.791 295.149 175.586 297.326 172.824 298.92C170.062 300.513 167.088 301.284 164.087 301.284C161.059 301.284 158.085 300.487 155.349 298.893L80.8817 255.551C76.7387 253.135 73.4456 249.841 71.1882 245.911C68.9308 241.954 67.7092 237.466 67.7092 232.712V66.4875C67.7092 62.7163 68.6652 59.1576 70.4711 56.0769C72.2505 52.9962 74.8532 50.3936 78.1463 48.508C81.4129 46.6224 84.9451 45.6929 88.5038 45.6929C92.0891 45.7195 95.6212 46.649 98.8878 48.5611L130.412 66.9124V31.5111C130.412 27.7399 131.368 24.1812 133.147 21.1005C134.927 18.0198 137.529 15.4437 140.822 13.5316C144.089 11.646 147.621 10.7165 151.18 10.7165C154.765 10.743 158.297 11.6991 161.564 13.5847L231.145 54.0851C235.288 56.4753 238.554 59.795 240.812 63.7255C243.096 67.6561 244.291 72.1443 244.291 76.9247V89.6989C244.291 92.3547 243.76 94.8776 242.697 97.2413C241.635 99.5518 240.095 101.65 238.076 103.429V103.403L184.935 150.277C183.554 151.525 181.907 152.295 180.154 152.561C178.428 152.826 176.622 152.587 174.922 151.817C173.249 151.047 171.868 149.852 170.886 148.365C169.93 146.877 169.398 145.125 169.398 143.292V111.901C169.398 109.219 168.787 106.802 167.592 104.731C166.424 102.686 164.644 100.906 162.361 99.5783L142.602 88.0789V197.735C142.602 200.391 143.239 202.834 144.408 204.879C145.603 206.951 147.382 208.704 149.666 210.032L169.77 221.743C170.036 220.416 170.434 219.114 170.992 217.893C172.054 215.556 173.594 213.484 175.613 211.705L228.755 164.83C230.162 163.609 231.809 162.839 233.535 162.573C235.288 162.307 237.094 162.546 238.767 163.317C240.467 164.06 241.848 165.282 242.804 166.769C243.76 168.256 244.291 169.983 244.291 171.815V248.806C244.291 251.966 243.494 254.967 241.954 257.57C240.467 260.172 238.289 262.35 235.5 263.944C232.738 265.537 229.764 266.307 226.763 266.307C223.735 266.307 220.761 265.51 218.025 263.917L181.615 242.724V242.724ZM169.398 283.782V235.607L143.558 220.575C139.415 218.158 136.122 214.865 133.864 210.934C131.607 206.977 130.412 202.489 130.412 197.735V80.988L92.7796 59.0779C91.372 58.2812 89.9114 57.8563 88.5038 57.8563C87.0431 57.8563 85.5824 58.2546 84.1749 59.0514C82.8205 59.8481 81.7316 60.9104 81.0145 62.1586C80.2975 63.3803 79.9257 64.8675 79.9257 66.4875V232.712C79.9257 235.368 80.5365 237.811 81.7316 239.856C82.9001 241.901 84.6795 243.68 86.9635 245.008L161.458 288.35C162.334 288.881 163.237 289.12 164.087 289.12C164.99 289.12 165.893 288.881 166.769 288.377C167.619 287.898 168.309 287.235 168.761 286.464C169.186 285.721 169.398 284.791 169.398 283.782ZM142.602 74.0033L168.442 89.0615C172.612 91.4517 175.878 94.7714 178.136 98.7019C180.393 102.632 181.615 107.121 181.615 111.901V137.025L230.029 94.2934V94.2668C230.746 93.656 231.278 92.9655 231.596 92.2219C231.915 91.5048 232.101 90.655 232.101 89.6989V76.9247C232.101 74.2423 231.464 71.8256 230.295 69.7807C229.1 67.7092 227.321 65.9298 225.037 64.6019L155.456 24.1015C154.048 23.3048 152.587 22.8799 151.18 22.8799C149.719 22.8799 148.258 23.2783 146.877 24.075C145.496 24.8717 144.408 25.934 143.691 27.1822C142.973 28.4039 142.602 29.8911 142.602 31.5111V74.0033V74.0033Z" fill="#FEFEFE"/>
</svg>
