<svg width="232" height="503" viewBox="0 0 232 503" fill="none" xmlns="http://www.w3.org/2000/svg">
<path d="M0.817597 29.6162C0.817597 31.413 2.27416 32.8695 4.07093 32.8695C5.8677 32.8695 7.32426 31.413 7.32426 29.6162C7.32426 27.8194 5.8677 26.3629 4.07093 26.3629C2.27416 26.3629 0.817597 27.8194 0.817597 29.6162ZM218.636 74.3744L218.939 74.9036L220.339 74.1005L218.758 73.7768L218.636 74.3744ZM47.6345 172.449L47.3311 171.92L46.1971 172.57L47.424 173.022L47.6345 172.449ZM157.025 212.685L157.404 213.163L158.257 212.488L157.236 212.112L157.025 212.685ZM3.62695 332.135L3.25218 331.653L2.23755 332.443L3.49131 332.729L3.62695 332.135ZM218.636 381.172L218.93 381.706L220.335 380.934L218.771 380.577L218.636 381.172ZM0.37362 499.364C0.37362 501.161 1.83019 502.617 3.62695 502.617C5.42372 502.617 6.88029 501.161 6.88029 499.364C6.88029 497.567 5.42372 496.111 3.62695 496.111C1.83019 496.111 0.37362 497.567 0.37362 499.364ZM3.95308 30.2147C49.4144 39.1665 49.2982 39.353 64.6917 42.8023C80.0961 46.254 111.009 52.9681 218.513 74.9721L218.758 73.7768C111.254 51.773 80.3508 45.0608 64.9584 41.6118C49.5551 38.1603 49.6609 37.9716 4.18878 29.0177L3.95308 30.2147ZM218.332 73.8453C175.582 98.364 154.207 110.623 143.519 116.753C138.175 119.818 135.504 121.35 134.168 122.116C133.5 122.5 133.166 122.691 132.999 122.787C132.915 122.835 132.873 122.859 132.853 122.871C132.842 122.877 132.837 122.88 132.834 122.881C132.833 122.882 132.832 122.882 132.832 122.882C132.832 122.882 132.832 122.882 132.832 122.882C132.832 122.882 132.832 122.882 132.833 122.882C133.581 122.996 133.643 123.75 133.643 123.75C133.643 123.75 133.581 122.996 132.833 122.882C132.832 122.882 132.832 122.882 132.832 122.882C132.832 122.883 132.832 122.883 132.831 122.883C132.831 122.883 132.83 122.883 132.829 122.884C132.826 122.886 132.821 122.889 132.811 122.895C132.79 122.907 132.748 122.93 132.665 122.978C132.498 123.074 132.164 123.266 131.496 123.649C130.16 124.415 127.488 125.947 122.144 129.012C111.457 135.142 90.0814 147.401 47.3311 171.92L47.938 172.978C90.6883 148.46 112.063 136.2 122.751 130.071C128.095 127.006 130.767 125.473 132.103 124.707C132.771 124.324 133.105 124.132 133.272 124.037C133.355 123.989 133.397 123.965 133.418 123.953C133.428 123.947 133.433 123.944 133.436 123.942C133.437 123.942 133.438 123.941 133.438 123.941C133.438 123.941 133.438 123.941 133.438 123.941C133.438 123.941 133.438 123.941 133.438 123.942C132.689 123.828 132.628 123.073 132.628 123.073C132.628 123.073 132.689 123.828 133.438 123.942C133.438 123.941 133.438 123.941 133.438 123.941C133.439 123.941 133.439 123.941 133.439 123.941C133.439 123.941 133.44 123.94 133.441 123.939C133.444 123.938 133.449 123.935 133.459 123.929C133.48 123.917 133.522 123.893 133.606 123.845C133.773 123.749 134.107 123.558 134.775 123.175C136.111 122.408 138.782 120.876 144.126 117.811C154.814 111.682 176.189 99.4223 218.939 74.9036L218.332 73.8453ZM47.424 173.022C74.7717 183.081 88.4455 188.11 95.2824 190.625C98.7009 191.882 100.41 192.511 101.265 192.825C101.692 192.982 101.906 193.061 102.013 193.1C102.066 193.12 102.093 193.13 102.106 193.135C102.113 193.137 102.116 193.138 102.118 193.139C102.119 193.139 102.119 193.139 102.119 193.139C102.119 193.139 102.119 193.139 102.119 193.139C102.119 193.139 102.119 193.139 102.119 193.139C101.729 192.46 102.33 191.957 102.33 191.957C102.33 191.957 101.729 192.46 102.119 193.139C102.119 193.139 102.119 193.139 102.119 193.139C102.119 193.139 102.119 193.139 102.12 193.139C102.12 193.14 102.12 193.14 102.121 193.14C102.123 193.141 102.126 193.142 102.133 193.144C102.146 193.149 102.173 193.159 102.226 193.179C102.333 193.218 102.547 193.297 102.974 193.454C103.829 193.768 105.538 194.397 108.956 195.654C115.793 198.169 129.467 203.198 156.815 213.257L157.236 212.112C129.888 202.053 116.214 197.024 109.377 194.509C105.959 193.252 104.25 192.623 103.395 192.309C102.968 192.152 102.754 192.073 102.647 192.034C102.594 192.014 102.567 192.004 102.554 191.999C102.547 191.997 102.544 191.996 102.542 191.995C102.541 191.995 102.541 191.995 102.541 191.995C102.541 191.994 102.541 191.994 102.541 191.995C102.541 191.995 102.541 191.995 102.541 191.995C102.93 192.674 102.33 193.177 102.33 193.177C102.33 193.177 102.93 192.674 102.541 191.995C102.541 191.995 102.541 191.995 102.541 191.994C102.541 191.994 102.54 191.994 102.54 191.994C102.54 191.994 102.54 191.994 102.539 191.994C102.537 191.993 102.534 191.992 102.527 191.99C102.514 191.985 102.487 191.975 102.434 191.955C102.327 191.916 102.113 191.837 101.686 191.68C100.831 191.366 99.1221 190.737 95.7036 189.48C88.8667 186.965 75.1928 181.936 47.8451 171.877L47.424 173.022ZM156.647 212.206C119.15 241.884 100.402 256.721 90.9756 264.152C86.261 267.868 83.8814 269.728 82.6541 270.665C82.037 271.137 81.7237 271.365 81.5549 271.477C81.5142 271.504 81.4856 271.522 81.4659 271.534C81.4461 271.546 81.4388 271.549 81.4401 271.548C81.4586 271.54 81.4847 271.533 81.4762 271.535C81.3352 271.566 81.2108 271.613 80.9608 271.766C80.7255 271.91 80.3415 272.169 79.6711 272.652C78.325 273.621 75.7754 275.524 70.8485 279.286C60.9919 286.812 41.6018 301.791 3.25218 331.653L4.00173 332.616C42.3513 302.753 61.7374 287.777 71.5888 280.256C76.5159 276.494 79.0533 274.6 80.384 273.642C81.052 273.161 81.4038 272.925 81.5964 272.807C81.6926 272.749 81.7341 272.729 81.7456 272.724C81.749 272.722 81.7451 272.724 81.7362 272.727C81.7284 272.729 81.7221 272.73 81.7355 272.727C81.7804 272.718 81.8564 272.701 81.9584 272.653C82.0412 272.614 82.1292 272.561 82.2314 272.492C82.4372 272.355 82.7797 272.104 83.3944 271.635C84.6307 270.691 87.0181 268.825 91.7309 265.11C101.159 257.679 119.908 242.84 157.404 213.163L156.647 212.206ZM218.342 380.637C164.59 410.185 137.714 424.959 124.276 432.346C117.557 436.04 114.197 437.887 112.517 438.81C111.677 439.272 111.257 439.503 111.047 439.618C110.942 439.676 110.89 439.705 110.864 439.719C110.851 439.726 110.844 439.73 110.841 439.732C110.839 439.732 110.838 439.733 110.838 439.733C110.838 439.733 110.838 439.733 110.837 439.733C110.837 439.733 110.837 439.734 110.837 439.734C110.541 440.42 111.131 440.878 111.131 440.878C111.131 440.878 110.541 440.42 110.837 439.734C110.837 439.734 110.837 439.734 110.837 439.733C110.837 439.733 110.837 439.734 110.837 439.734C110.837 439.734 110.836 439.734 110.834 439.735C110.831 439.737 110.824 439.741 110.811 439.748C110.785 439.762 110.733 439.791 110.628 439.849C110.418 439.964 109.998 440.195 109.158 440.657C107.478 441.58 104.118 443.427 97.3995 447.12C83.9614 454.507 57.0853 469.281 3.3331 498.83L3.9208 499.899C57.673 470.351 84.5491 455.577 97.9872 448.19C104.706 444.496 108.066 442.649 109.745 441.726C110.585 441.264 111.005 441.033 111.215 440.918C111.32 440.86 111.373 440.831 111.399 440.817C111.412 440.81 111.419 440.806 111.422 440.804C111.424 440.803 111.424 440.803 111.425 440.803C111.425 440.803 111.425 440.803 111.425 440.802C111.425 440.802 111.426 440.802 111.426 440.802C111.722 440.116 111.131 439.658 111.131 439.658C111.131 439.658 111.722 440.116 111.426 440.802C111.426 440.802 111.425 440.802 111.425 440.802C111.425 440.802 111.425 440.802 111.426 440.802C111.426 440.802 111.427 440.802 111.428 440.801C111.432 440.799 111.438 440.795 111.451 440.788C111.478 440.774 111.53 440.745 111.635 440.687C111.845 440.572 112.265 440.341 113.105 439.879C114.785 438.956 118.144 437.109 124.863 433.415C138.301 426.028 165.177 411.254 218.93 381.706L218.342 380.637ZM3.49131 332.729C57.2435 344.989 84.1196 351.118 97.5577 354.183C104.277 355.715 107.636 356.482 109.316 356.865C110.156 357.056 110.576 357.152 110.786 357.2C110.891 357.224 110.943 357.236 110.969 357.242C110.983 357.245 110.989 357.246 110.992 357.247C110.994 357.248 110.995 357.248 110.995 357.248C110.995 357.248 110.996 357.248 110.996 357.248C110.996 357.248 110.995 357.248 110.995 357.248C110.525 356.585 111.131 356.043 111.131 356.043C111.131 356.043 110.525 356.585 110.995 357.248C110.996 357.248 110.996 357.248 110.996 357.248C110.996 357.248 110.996 357.248 110.996 357.248C110.997 357.248 110.997 357.248 110.999 357.249C111.002 357.249 111.009 357.251 111.022 357.254C111.048 357.26 111.101 357.272 111.206 357.296C111.416 357.344 111.836 357.439 112.675 357.631C114.355 358.014 117.715 358.78 124.434 360.313C137.872 363.378 164.748 369.507 218.5 381.767L218.771 380.577C165.019 368.318 138.143 362.188 124.705 359.123C117.986 357.591 114.627 356.825 112.947 356.442C112.107 356.25 111.687 356.154 111.477 356.106C111.372 356.082 111.319 356.07 111.293 356.064C111.28 356.061 111.274 356.06 111.27 356.059C111.269 356.059 111.268 356.059 111.267 356.059C111.267 356.058 111.267 356.058 111.267 356.058C111.267 356.058 111.267 356.058 111.267 356.058C111.738 356.722 111.131 357.263 111.131 357.263C111.131 357.263 111.738 356.722 111.267 356.058C111.267 356.058 111.267 356.058 111.267 356.058C111.267 356.058 111.267 356.058 111.267 356.058C111.266 356.058 111.265 356.058 111.264 356.058C111.26 356.057 111.254 356.055 111.241 356.052C111.215 356.046 111.162 356.034 111.057 356.011C110.847 355.963 110.427 355.867 109.587 355.675C107.907 355.292 104.548 354.526 97.8289 352.994C84.3909 349.929 57.5148 343.799 3.76259 331.54L3.49131 332.729Z" fill="white"/>
<path d="M40.6477 39.6002C40.6828 34.7742 44.576 30.9437 49.2914 30.992C54.0068 31.0404 57.8436 34.95 57.8085 39.776C57.7734 44.602 53.8803 48.4324 49.1649 48.3841C44.4494 48.3358 40.6126 44.4262 40.6477 39.6002Z" fill="black" stroke="white" stroke-width="1.78832"/>
<ellipse rx="3.52909" ry="3.62835" transform="matrix(-1.00747 -0.0103213 0.00720466 -0.990273 49.2285 39.6879)" fill="white"/>
<path d="M49.2891 31.3042L49.3326 25.3158" stroke="white" stroke-width="2.38443"/>
<path d="M186.883 93.5446C189.186 97.7863 187.629 103.021 183.478 105.259C179.327 107.496 174.078 105.928 171.776 101.686C169.474 97.4447 171.03 92.2096 175.181 89.9724C179.333 87.7352 184.581 89.303 186.883 93.5446Z" fill="black" stroke="white" stroke-width="1.78832"/>
<ellipse rx="3.52909" ry="3.62835" transform="matrix(0.886928 -0.47798 0.472394 0.870366 179.329 97.6152)" fill="white"/>
<path d="M183.329 104.984L186.186 110.247" stroke="white" stroke-width="2.38443"/>
<path d="M38.9939 176.579C37.0588 172.157 39.0525 167.073 43.3781 165.195C47.7037 163.317 52.8009 165.323 54.736 169.744C56.6711 174.165 54.6774 179.25 50.3518 181.128C46.0262 183.006 40.929 181 38.9939 176.579Z" fill="black" stroke="white" stroke-width="1.78832"/>
<ellipse rx="3.52909" ry="3.62835" transform="matrix(-0.924184 0.401236 -0.397072 -0.907209 46.8651 173.161)" fill="white"/>
<path d="M43.5029 165.48L41.1017 159.994" stroke="white" stroke-width="2.38443"/>
<path d="M143.524 211.448C146.776 207.882 152.232 207.635 155.707 210.823C159.182 214.011 159.422 219.483 156.17 223.049C152.918 226.615 147.463 226.862 143.988 223.674C140.513 220.486 140.272 215.014 143.524 211.448Z" fill="black" stroke="white" stroke-width="1.78832"/>
<ellipse rx="3.52909" ry="3.62835" transform="matrix(-0.74244 -0.681094 0.66728 -0.731731 149.847 217.249)" fill="white"/>
<path d="M155.497 211.054L159.532 206.629" stroke="white" stroke-width="2.38443"/>
<path d="M40.8459 340.474C42.031 335.796 46.7253 333.004 51.2931 334.176C55.861 335.348 58.6546 340.059 57.4695 344.738C56.2844 349.416 51.5901 352.208 47.0222 351.036C42.4544 349.864 39.6608 345.153 40.8459 340.474Z" fill="black" stroke="white" stroke-width="1.78832"/>
<ellipse rx="3.52909" ry="3.62835" transform="matrix(-0.975937 -0.250306 0.243177 -0.959978 49.1579 342.606)" fill="white"/>
<path d="M51.2158 334.479L52.6864 328.674" stroke="white" stroke-width="2.38443"/>
<path d="M182.801 411.684C177.978 411.527 174.247 407.539 174.414 402.826C174.581 398.113 178.586 394.376 183.41 394.533C188.233 394.69 191.965 398.679 191.797 403.391C191.63 408.104 187.625 411.841 182.801 411.684Z" fill="black" stroke="white" stroke-width="1.78832"/>
<ellipse rx="3.52909" ry="3.62835" transform="matrix(-0.0357319 1.00689 -0.989777 -0.0321824 183.106 403.109)" fill="white"/>
<path d="M174.726 402.836L168.74 402.641" stroke="white" stroke-width="2.38443"/>
<path d="M57.129 464.148C61.0352 466.983 61.8885 472.377 59.1078 476.186C56.3271 479.994 50.9155 480.843 47.0092 478.009C43.103 475.175 42.2498 469.78 45.0305 465.972C47.8112 462.163 53.2228 461.314 57.129 464.148Z" fill="black" stroke="white" stroke-width="1.78832"/>
<ellipse rx="3.52909" ry="3.62835" transform="matrix(0.594111 -0.813719 0.801538 0.581576 52.0694 471.078)" fill="white"/>
<path d="M58.8555 476.002L63.7026 479.519" stroke="white" stroke-width="2.38443"/>
<path d="M30.355 1.15565H28.8812L26.1965 8.93141H27.6259L28.3055 6.87023H31.4303L32.28 8.93141H33.7648L30.355 1.15565ZM31.0169 5.8451H28.6123L29.6897 2.57339L31.0169 5.8451ZM40.5056 1.16656H39.1205L39.2644 4.25287H35.652L35.5081 1.16656H34.1229L34.485 8.93141H35.8701L35.7074 5.44159H39.3198L39.4826 8.93141H40.8677L40.5056 1.16656ZM45.7429 1.15565H44.2691L41.5844 8.93141H43.0139L43.6934 6.87023H46.8183L47.6679 8.93141H49.1528L45.7429 1.15565ZM46.4048 5.8451H44.0002L45.0776 2.57339L46.4048 5.8451ZM56.0672 8.93141L55.7051 1.16656L50.5525 1.16656L50.6074 5.67061C50.6329 7.64454 50.216 7.97171 49.6509 7.97171C49.5401 7.97171 49.2731 7.9499 49.1038 7.88446L49.1527 8.93141C49.3552 8.99684 49.6801 9.07318 49.9904 9.07318C51.1206 9.07318 51.978 8.21163 51.9655 6.0414L51.9371 2.34437H54.3749L54.6821 8.93141H56.0672ZM57.6751 8.93141H59.2819L62.395 2.9769L62.6727 8.93141H64.0578L63.6957 1.16656H62.0889L58.9758 7.12106L58.6981 1.16656H57.313L57.6751 8.93141ZM71.4513 6.68484C71.4051 5.69242 70.7504 4.96174 69.8669 4.78725L69.8654 4.75453C70.4677 4.60185 71.0889 3.90389 71.0508 3.08596C70.9827 1.6246 69.6673 0.981163 68.1048 0.981163C66.4981 0.981163 65.2568 1.69003 65.2712 3.42404H66.5898C66.6332 2.45343 67.2687 2.06083 68.2438 2.06083C69.1303 2.06083 69.6589 2.46434 69.6909 3.15139C69.725 3.88208 69.1933 4.36193 68.4841 4.36193H67.5201L67.5694 5.41978H68.5334C69.431 5.41978 70.0265 5.83419 70.0652 6.66303C70.1064 7.54639 69.5747 8.02624 68.5774 8.02624C67.4582 8.02624 66.5166 7.55729 66.4607 6.35767H65.0977C65.1852 8.23344 66.6775 9.1059 68.5502 9.1059C70.7664 9.1059 71.4961 7.64454 71.4513 6.68484ZM25.9302 16.8817H24.5451C24.4544 18.0268 23.9063 18.8665 22.6209 18.8665C20.9366 18.8665 20.2252 17.3942 20.1581 15.9547C20.0915 14.526 20.6987 13.0538 22.3609 13.0538C23.3803 13.0538 24.1487 13.6099 24.3808 14.5478H25.7549C25.405 12.7484 23.9027 11.8978 22.3292 11.8978C19.9356 11.8978 18.6591 13.7517 18.7619 15.9547C18.8763 18.4085 20.4142 20.0225 22.6415 20.0225C24.614 20.0225 25.8741 18.7683 25.9302 16.8817ZM32.4111 12.0722H25.9952L26.0501 13.2501H28.5655L28.8726 19.8371H30.2578L29.9506 13.2501H32.466L32.4111 12.0722ZM33.3394 12.0722L33.7015 19.8371H35.0866L34.9472 16.8489H37.1745C38.7702 16.8489 39.6905 15.911 39.6219 14.4388C39.5461 12.8138 38.3923 12.0722 36.7634 12.0722H33.3394ZM34.7774 13.2064H36.5836C37.459 13.2064 38.2247 13.4682 38.2715 14.4715C38.3142 15.3876 37.7215 15.7475 36.824 15.7475H34.8959L34.7774 13.2064ZM43.4866 12.0613H42.0128L39.3281 19.8371H40.7576L41.4371 17.7759H44.562L45.4116 19.8371H46.8965L43.4866 12.0613ZM44.1485 16.7508L41.7439 16.7508L42.8213 13.4791L44.1485 16.7508ZM53.6372 12.0722H52.2521L52.396 15.1586H48.7836L48.6397 12.0722H47.2545L47.6166 19.8371H49.0018L48.839 16.3473H52.4514L52.6142 19.8371H53.9993L53.6372 12.0722ZM55.6136 19.8371H57.2203L60.3335 13.8826L60.6111 19.8371H61.9963L61.6342 12.0722H60.0274L56.9143 18.0268L56.6366 12.0722H55.2515L55.6136 19.8371ZM69.9051 18.6593L69.5979 12.0722H68.2128L68.5199 18.6593H64.9075L64.6003 12.0722H63.2152L63.5773 19.8371H69.4835L69.5735 21.7674H70.9143L70.7694 18.6593H69.9051ZM77.6306 17.4269C77.5594 15.9001 76.5552 15.0386 74.8266 15.0386H72.9428L72.8045 12.0722H71.4193L71.7814 19.8371H75.0503C76.7679 19.8371 77.7023 18.9646 77.6306 17.4269ZM76.247 17.4597C76.2862 18.2994 75.8517 18.7247 74.9431 18.7247H73.1147L72.9947 16.151H74.8009C75.6652 16.151 76.2089 16.6417 76.247 17.4597ZM78.3117 12.0722L78.6738 19.8371H80.059L79.6969 12.0722H78.3117Z" fill="white"/>
<path d="M173.649 120.128C173.334 120.128 173.052 120.19 172.802 120.315C172.56 120.44 172.355 120.619 172.186 120.854C172.018 121.081 171.889 121.36 171.801 121.69C171.721 122.02 171.68 122.39 171.68 122.801C171.68 123.358 171.746 123.835 171.878 124.231C172.018 124.62 172.234 124.917 172.527 125.122C172.821 125.327 173.195 125.43 173.649 125.43C173.972 125.43 174.291 125.393 174.606 125.32C174.929 125.247 175.277 125.144 175.651 125.012V126.409C175.307 126.548 174.966 126.651 174.628 126.717C174.291 126.783 173.913 126.816 173.495 126.816C172.689 126.816 172.021 126.651 171.493 126.321C170.973 125.984 170.588 125.514 170.338 124.913C170.089 124.304 169.964 123.597 169.964 122.79C169.964 122.196 170.045 121.653 170.206 121.162C170.368 120.663 170.602 120.234 170.91 119.875C171.226 119.516 171.611 119.237 172.065 119.039C172.527 118.841 173.055 118.742 173.649 118.742C174.038 118.742 174.427 118.793 174.815 118.896C175.211 118.991 175.589 119.123 175.948 119.292L175.409 120.645C175.116 120.506 174.819 120.385 174.518 120.282C174.225 120.179 173.935 120.128 173.649 120.128ZM180.345 126.706H178.684V120.238H176.55V118.852H182.479V120.238H180.345V126.706ZM186.198 118.852C187.21 118.852 187.947 119.072 188.409 119.512C188.879 119.945 189.113 120.542 189.113 121.305C189.113 121.65 189.062 121.98 188.959 122.295C188.857 122.603 188.684 122.882 188.442 123.131C188.208 123.373 187.896 123.564 187.507 123.703C187.119 123.842 186.638 123.912 186.066 123.912H185.351V126.706H183.69V118.852H186.198ZM186.11 120.216H185.351V122.548H185.901C186.217 122.548 186.488 122.508 186.715 122.427C186.943 122.346 187.119 122.218 187.243 122.042C187.368 121.866 187.43 121.639 187.43 121.36C187.43 120.971 187.324 120.685 187.111 120.502C186.899 120.311 186.565 120.216 186.11 120.216ZM194.857 126.706L194.285 124.836H191.425L190.853 126.706H189.06L191.832 118.819H193.867L196.65 126.706H194.857ZM193.317 121.613C193.28 121.488 193.232 121.331 193.174 121.14C193.115 120.949 193.056 120.755 192.998 120.557C192.939 120.359 192.891 120.187 192.855 120.04C192.818 120.187 192.767 120.37 192.701 120.59C192.642 120.803 192.583 121.008 192.525 121.206C192.473 121.397 192.433 121.532 192.404 121.613L191.843 123.439H193.889L193.317 121.613ZM199.896 126.706H198.235V120.238H196.101V118.852H202.03V120.238H199.896V126.706ZM207.762 126.706H203.241V118.852H207.762V120.216H204.902V121.943H207.564V123.307H204.902V125.331H207.762V126.706ZM214.357 118.852V120.227H211.057V126.706H209.396V118.852H214.357ZM215.562 118.852H217.058V122.647C217.058 122.83 217.055 123.036 217.047 123.263C217.04 123.49 217.033 123.714 217.025 123.934C217.018 124.147 217.011 124.334 217.003 124.495C216.996 124.649 216.989 124.755 216.981 124.814H217.014L220.644 118.852H222.635V126.706H221.15V122.933C221.15 122.735 221.154 122.519 221.161 122.284C221.169 122.042 221.176 121.811 221.183 121.591C221.198 121.371 221.209 121.18 221.216 121.019C221.231 120.85 221.242 120.74 221.249 120.689H221.205L217.564 126.706H215.562V118.852ZM227.258 123.692L225.421 126.706H223.573L225.806 123.252C225.593 123.164 225.381 123.036 225.168 122.867C224.955 122.691 224.779 122.46 224.64 122.174C224.501 121.881 224.431 121.521 224.431 121.096C224.431 120.37 224.691 119.816 225.212 119.435C225.733 119.046 226.462 118.852 227.401 118.852H229.953V126.706H228.292V123.692H227.258ZM227.467 120.216C227.181 120.216 226.935 120.249 226.73 120.315C226.532 120.381 226.378 120.487 226.268 120.634C226.165 120.781 226.114 120.975 226.114 121.217C226.114 121.562 226.228 121.837 226.455 122.042C226.69 122.24 227.042 122.339 227.511 122.339H228.292V120.216H227.467Z" fill="white"/>
<path d="M18.8371 138.657H16.9376L13.9561 134.693L14.0772 138.657H12.4096L12.1707 130.838H13.8384L13.9541 134.627L16.6656 130.838H18.4436L15.687 134.594L18.8371 138.657ZM26.6506 134.737C26.6691 135.342 26.6086 135.894 26.4692 136.39C26.3369 136.879 26.1216 137.303 25.8233 137.66C25.5323 138.018 25.1505 138.292 24.6777 138.482C24.2123 138.672 23.6594 138.766 23.0188 138.766C22.3783 138.766 21.8158 138.672 21.3315 138.482C20.8542 138.285 20.4557 138.011 20.1357 137.66C19.8229 137.303 19.5816 136.876 19.4119 136.379C19.2494 135.883 19.159 135.331 19.1405 134.726C19.1157 133.915 19.2267 133.211 19.4735 132.612C19.7276 132.013 20.1257 131.55 20.6679 131.221C21.2172 130.885 21.9225 130.718 22.784 130.718C23.638 130.718 24.3463 130.885 24.9087 131.221C25.4709 131.55 25.8938 132.017 26.1774 132.623C26.4681 133.222 26.6258 133.926 26.6506 134.737ZM20.8968 134.737C20.9135 135.284 20.9978 135.755 21.1498 136.149C21.3017 136.543 21.5281 136.846 21.8291 137.058C22.1301 137.27 22.5125 137.376 22.9763 137.376C23.4549 137.376 23.8345 137.27 24.1152 137.058C24.4032 136.846 24.6075 136.543 24.728 136.149C24.8558 135.755 24.9114 135.284 24.8946 134.737C24.8694 133.912 24.6951 133.265 24.3716 132.798C24.0481 132.331 23.5329 132.097 22.8261 132.097C22.3549 132.097 21.9753 132.203 21.6873 132.415C21.3992 132.627 21.1913 132.93 21.0634 133.324C20.9356 133.718 20.88 134.189 20.8968 134.737ZM34.8644 138.657H33.1967L33.0937 135.284H29.9683L30.0713 138.657H28.4037L28.1649 130.838H29.8325L29.9261 133.904H33.0515L32.9579 130.838H34.6255L34.8644 138.657ZM39.8854 138.657H38.2178L38.0211 132.218H35.8786L35.8364 130.838H41.789L41.8312 132.218H39.6887L39.8854 138.657ZM47.7828 138.657H43.2438L43.005 130.838H47.544L47.5855 132.196H44.7141L44.7666 133.915H47.4392L47.4807 135.273H44.8081L44.8696 137.288H47.741L47.7828 138.657ZM55.8842 138.657H54.2166L54.1136 135.284H50.9882L51.0912 138.657H49.4236L49.1848 130.838H50.8524L50.946 133.904H54.0714L53.9778 130.838H55.6454L55.8842 138.657ZM60.9053 138.657H59.2377L59.041 132.218H56.8985L56.8563 130.838H62.8089L62.8511 132.218H60.7086L60.9053 138.657ZM22.4987 152.594L22.2599 144.775H28.4996L28.7385 152.594H27.0709L26.8742 146.155H23.9696L24.1664 152.594H22.4987ZM36.9674 152.594H35.2998L35.1031 146.155H33.1704C33.1365 146.491 33.0998 146.856 33.0603 147.25C33.0282 147.645 32.9889 148.046 32.9425 148.455C32.9032 148.856 32.8597 149.24 32.812 149.605C32.764 149.963 32.7148 150.28 32.6644 150.558C32.5825 151.01 32.4655 151.397 32.3133 151.718C32.1685 152.04 31.9588 152.284 31.6841 152.452C31.4169 152.62 31.0623 152.704 30.6206 152.704C30.4733 152.704 30.3331 152.693 30.1999 152.671C30.0667 152.649 29.9407 152.62 29.8217 152.583L29.7803 151.226C29.8769 151.255 29.9697 151.28 30.0587 151.302C30.1551 151.324 30.2585 151.335 30.3689 151.335C30.5162 151.335 30.6362 151.288 30.729 151.193C30.8218 151.098 30.9016 150.937 30.9683 150.711C31.0348 150.477 31.0986 150.156 31.1597 149.747C31.1912 149.572 31.2278 149.324 31.2695 149.002C31.311 148.674 31.3582 148.291 31.4111 147.853C31.4711 147.407 31.53 146.925 31.5878 146.407C31.6454 145.881 31.6987 145.338 31.7478 144.775H36.7286L36.9674 152.594ZM43.7827 152.594L43.1516 150.733H40.2802L39.7628 152.594H37.9627L40.5058 144.743H42.5489L45.5829 152.594H43.7827ZM42.0817 147.524C42.0411 147.4 41.9885 147.243 41.9238 147.053C41.8591 146.863 41.7943 146.67 41.7293 146.473C41.6644 146.276 41.6113 146.104 41.57 145.958C41.5377 146.104 41.4917 146.287 41.4321 146.506C41.3797 146.717 41.3271 146.922 41.2742 147.119C41.2284 147.309 41.1921 147.444 41.1651 147.524L40.6574 149.342H42.7115L42.0817 147.524ZM53.0422 152.594H51.3746L51.2715 149.221H48.1461L48.2492 152.594H46.5816L46.3427 144.775H48.0103L48.104 147.842H51.2294L51.1357 144.775H52.8033L53.0422 152.594Z" fill="white"/>
<path d="M144.357 189.146L145.853 189.146L145.853 192.941C145.853 193.124 145.85 193.33 145.842 193.557C145.835 193.784 145.828 194.008 145.82 194.228C145.813 194.441 145.806 194.628 145.798 194.789C145.791 194.943 145.784 195.049 145.776 195.108L145.809 195.108L149.439 189.146L151.43 189.146L151.43 197L149.945 197L149.945 193.227C149.945 193.029 149.949 192.813 149.956 192.578C149.964 192.336 149.971 192.105 149.978 191.885C149.993 191.665 150.004 191.474 150.011 191.313C150.026 191.144 150.037 191.034 150.044 190.983L150 190.983L146.359 197L144.357 197L144.357 189.146ZM156.735 197L154.843 190.84L154.799 190.84C154.806 190.987 154.817 191.207 154.832 191.5C154.847 191.793 154.861 192.109 154.876 192.446C154.891 192.776 154.898 193.077 154.898 193.348L154.898 197L153.413 197L153.413 189.146L155.679 189.146L157.538 195.152L157.571 195.152L159.54 189.146L161.806 189.146L161.806 197L160.255 197L160.255 193.282C160.255 193.033 160.259 192.747 160.266 192.424C160.281 192.101 160.292 191.797 160.299 191.511C160.314 191.218 160.325 190.998 160.332 190.851L160.288 190.851L158.264 197L156.735 197ZM163.79 189.146L165.286 189.146L165.286 192.941C165.286 193.124 165.282 193.33 165.275 193.557C165.267 193.784 165.26 194.008 165.253 194.228C165.245 194.441 165.238 194.628 165.231 194.789C165.223 194.943 165.216 195.049 165.209 195.108L165.242 195.108L168.872 189.146L170.863 189.146L170.863 197L169.378 197L169.378 193.227C169.378 193.029 169.381 192.813 169.389 192.578C169.396 192.336 169.403 192.105 169.411 191.885C169.425 191.665 169.436 191.474 169.444 191.313C169.458 191.144 169.469 191.034 169.477 190.983L169.433 190.983L165.792 197L163.79 197L163.79 189.146ZM178.994 189.146L178.994 195.614L180.039 195.614L180.039 199.288L178.433 199.288L178.433 197L173.516 197L173.516 199.288L171.91 199.288L171.91 195.614L172.515 195.614C172.721 195.203 172.919 194.771 173.109 194.316C173.3 193.861 173.476 193.374 173.637 192.853C173.806 192.332 173.956 191.768 174.088 191.159C174.22 190.543 174.33 189.872 174.418 189.146L178.994 189.146ZM175.738 190.532C175.687 190.913 175.614 191.32 175.518 191.753C175.423 192.178 175.309 192.615 175.177 193.062C175.053 193.509 174.913 193.949 174.759 194.382C174.605 194.815 174.44 195.225 174.264 195.614L177.333 195.614L177.333 190.532L175.738 190.532ZM183.05 192.919L180.41 189.146L182.126 189.146L184.667 192.952L184.667 189.146L186.218 189.146L186.218 192.952L188.759 189.146L190.475 189.146L187.835 192.919L190.629 197L188.847 197L186.218 193.018L186.218 197L184.667 197L184.667 193.018L182.038 197L180.256 197L183.05 192.919Z" fill="white"/>
<path d="M55.7441 320.017H53.8252L50.8718 316.094L50.9355 320.017H49.2508L49.1252 312.279H50.8099L50.8707 316.029L53.666 312.279H55.4623L52.6219 315.997L55.7441 320.017ZM59.165 312.279C60.1914 312.279 60.9425 312.496 61.4181 312.929C61.901 313.356 62.1486 313.945 62.1608 314.696C62.1663 315.036 62.1195 315.361 62.0205 315.671C61.9213 315.975 61.7509 316.249 61.5095 316.495C61.2753 316.733 60.9623 316.921 60.5703 317.059C60.1783 317.196 59.6922 317.265 59.1121 317.265H58.3869L58.4316 320.017H56.7469L56.6212 312.279H59.165ZM59.0976 313.623H58.3277L58.365 315.921H58.9229C59.2427 315.921 59.5173 315.881 59.7466 315.801C59.9758 315.722 60.1523 315.596 60.2759 315.422C60.3996 315.249 60.4591 315.025 60.4547 314.75C60.4485 314.367 60.336 314.085 60.1174 313.905C59.8987 313.717 59.5587 313.623 59.0976 313.623ZM68.3381 320.017H63.7526L63.627 312.279H68.2125L68.2343 313.623H65.3335L65.3611 315.325H68.0611L68.0829 316.668H65.3829L65.4153 318.663H68.3161L68.3381 320.017ZM74.8713 320.017L74.2612 318.175H71.3604L70.8102 320.017H68.9916L71.6769 312.247H73.741L76.6898 320.017H74.8713ZM73.2278 314.999C73.1886 314.877 73.1378 314.721 73.0752 314.533C73.0127 314.346 72.95 314.154 72.8874 313.959C72.8247 313.764 72.7736 313.594 72.7341 313.45C72.6992 313.594 72.6501 313.775 72.5867 313.992C72.5306 314.201 72.4743 314.403 72.418 314.598C72.369 314.786 72.3303 314.92 72.3018 314.999L71.762 316.799H73.8372L73.2278 314.999ZM79.9824 320.017H78.2977L78.1943 313.645H76.0298L76.0076 312.279H82.0212L82.0434 313.645H79.879L79.9824 320.017ZM83.2496 312.279H84.767L84.8277 316.018C84.8306 316.199 84.8302 316.401 84.8264 316.625C84.8226 316.849 84.8187 317.069 84.8148 317.286C84.8108 317.496 84.8063 317.68 84.8015 317.839C84.7965 317.991 84.7907 318.095 84.7842 318.153H84.8177L88.4041 312.279H90.4235L90.5492 320.017H89.043L88.9826 316.3C88.9795 316.105 88.9797 315.892 88.9834 315.661C88.987 315.422 88.9907 315.195 88.9946 314.978C89.006 314.761 89.0141 314.573 89.0189 314.414C89.0311 314.248 89.0405 314.14 89.0471 314.089H89.0025L85.4058 320.017H83.3753L83.2496 312.279ZM94.9113 312.279C95.6179 312.279 96.2103 312.344 96.6884 312.474C97.1739 312.597 97.538 312.803 97.7807 313.092C98.0307 313.374 98.1596 313.757 98.1675 314.241C98.1722 314.53 98.1281 314.794 98.0353 315.032C97.9425 315.27 97.8043 315.465 97.6208 315.617C97.4448 315.769 97.227 315.866 96.9673 315.91L96.9682 315.964C97.2368 316.015 97.48 316.105 97.6978 316.235C97.9156 316.365 98.0897 316.553 98.2202 316.799C98.3506 317.044 98.4191 317.369 98.4257 317.774C98.4333 318.244 98.3209 318.648 98.0884 318.988C97.8632 319.32 97.5327 319.577 97.0968 319.757C96.6607 319.931 96.1415 320.017 95.539 320.017H92.5601L92.4345 312.279H94.9113ZM95.1508 315.346C95.6417 315.346 95.9789 315.27 96.1623 315.119C96.3533 314.967 96.4464 314.747 96.4417 314.458C96.4369 314.161 96.3218 313.948 96.0966 313.818C95.8713 313.688 95.517 313.623 95.0335 313.623H94.141L94.169 315.346H95.1508ZM94.1901 316.647L94.2228 318.663H95.3273C95.8331 318.663 96.1849 318.569 96.3827 318.381C96.5803 318.186 96.6766 317.929 96.6714 317.611C96.6682 317.416 96.6209 317.246 96.5293 317.102C96.4451 316.957 96.2982 316.845 96.0887 316.766C95.8791 316.687 95.5958 316.647 95.2388 316.647H94.1901Z" fill="white"/>
<path d="M106.351 398.787C107.363 398.787 108.1 399.007 108.562 399.447C109.031 399.88 109.266 400.477 109.266 401.24C109.266 401.585 109.215 401.915 109.112 402.23C109.009 402.538 108.837 402.817 108.595 403.066C108.36 403.308 108.049 403.499 107.66 403.638C107.271 403.777 106.791 403.847 106.219 403.847H105.504V406.641H103.843V398.787H106.351ZM106.263 400.151H105.504V402.483H106.054C106.369 402.483 106.641 402.443 106.868 402.362C107.095 402.281 107.271 402.153 107.396 401.977C107.521 401.801 107.583 401.574 107.583 401.295C107.583 400.906 107.477 400.62 107.264 400.437C107.051 400.246 106.718 400.151 106.263 400.151ZM115.271 406.641H110.75V398.787H115.271V400.151H112.411V401.878H115.073V403.242H112.411V405.266H115.271V406.641ZM123.308 406.641H121.416L118.567 402.659V406.641H116.906V398.787H118.567V402.593L121.383 398.787H123.154L120.294 402.56L123.308 406.641ZM130.511 406.641H128.85V400.173H126.925C126.881 400.51 126.833 400.877 126.782 401.273C126.738 401.669 126.687 402.072 126.628 402.483C126.577 402.886 126.522 403.271 126.463 403.638C126.404 403.997 126.346 404.316 126.287 404.595C126.192 405.05 126.063 405.438 125.902 405.761C125.748 406.084 125.532 406.329 125.253 406.498C124.982 406.667 124.626 406.751 124.186 406.751C124.039 406.751 123.9 406.74 123.768 406.718C123.636 406.696 123.511 406.667 123.394 406.63V405.266C123.489 405.295 123.581 405.321 123.669 405.343C123.764 405.365 123.867 405.376 123.977 405.376C124.124 405.376 124.245 405.328 124.34 405.233C124.435 405.138 124.52 404.976 124.593 404.749C124.666 404.514 124.74 404.192 124.813 403.781C124.85 403.605 124.894 403.356 124.945 403.033C124.996 402.703 125.055 402.318 125.121 401.878C125.194 401.431 125.268 400.947 125.341 400.426C125.414 399.898 125.484 399.352 125.55 398.787H130.511V406.641ZM137.299 406.641L136.727 404.771H133.867L133.295 406.641H131.502L134.274 398.754H136.309L139.092 406.641H137.299ZM135.759 401.548C135.723 401.423 135.675 401.266 135.616 401.075C135.558 400.884 135.499 400.69 135.44 400.492C135.382 400.294 135.334 400.122 135.297 399.975C135.261 400.122 135.209 400.305 135.143 400.525C135.085 400.738 135.026 400.943 134.967 401.141C134.916 401.332 134.876 401.467 134.846 401.548L134.285 403.374H136.331L135.759 401.548ZM143.409 406.641L141.517 400.481H141.473C141.481 400.628 141.492 400.848 141.506 401.141C141.521 401.434 141.536 401.75 141.55 402.087C141.565 402.417 141.572 402.718 141.572 402.989V406.641H140.087V398.787H142.353L144.212 404.793H144.245L146.214 398.787H148.48V406.641H146.929V402.923C146.929 402.674 146.933 402.388 146.94 402.065C146.955 401.742 146.966 401.438 146.973 401.152C146.988 400.859 146.999 400.639 147.006 400.492H146.962L144.938 406.641H143.409ZM155.271 406.641L154.699 404.771H151.839L151.267 406.641H149.474L152.246 398.754H154.281L157.064 406.641H155.271ZM153.731 401.548C153.694 401.423 153.647 401.266 153.588 401.075C153.529 400.884 153.471 400.69 153.412 400.492C153.353 400.294 153.306 400.122 153.269 399.975C153.232 400.122 153.181 400.305 153.115 400.525C153.056 400.738 152.998 400.943 152.939 401.141C152.888 401.332 152.847 401.467 152.818 401.548L152.257 403.374H154.303L153.731 401.548Z" fill="white"/>
<path d="M77.9951 488.917H76.09L73.3082 484.965L73.2212 488.917H71.5487L71.7202 481.122H73.3927L73.3096 484.899L76.2283 481.122H78.0115L75.0493 484.867L77.9951 488.917ZM86.0377 485.009C86.0244 485.613 85.9348 486.162 85.7688 486.657C85.6104 487.145 85.3722 487.567 85.0542 487.923C84.7436 488.28 84.3463 488.553 83.8621 488.742C83.3854 488.931 82.8258 489.026 82.1834 489.026C81.5409 489.026 80.9818 488.931 80.506 488.742C80.0378 488.546 79.6524 488.273 79.3499 487.923C79.055 487.567 78.8355 487.141 78.6913 486.646C78.5545 486.151 78.4928 485.602 78.5061 484.998C78.5238 484.19 78.6722 483.488 78.9511 482.891C79.2375 482.294 79.6612 481.832 80.2222 481.504C80.7908 481.17 81.507 481.002 82.371 481.002C83.2275 481.002 83.929 481.17 84.4755 481.504C85.0221 481.832 85.4217 482.298 85.6742 482.902C85.9343 483.498 86.0555 484.201 86.0377 485.009ZM80.2669 485.009C80.2549 485.554 80.3148 486.024 80.4464 486.417C80.5781 486.81 80.7893 487.112 81.08 487.323C81.3707 487.534 81.7487 487.64 82.2139 487.64C82.6938 487.64 83.0801 487.534 83.3728 487.323C83.6728 487.112 83.8936 486.81 84.0351 486.417C84.1841 486.024 84.2646 485.554 84.2766 485.009C84.2947 484.186 84.1538 483.542 83.8539 483.076C83.554 482.611 83.0496 482.378 82.3407 482.378C81.8681 482.378 81.4818 482.483 81.1818 482.694C80.8818 482.905 80.6573 483.207 80.5084 483.6C80.3594 483.993 80.2789 484.463 80.2669 485.009ZM94.0695 488.917H92.397L92.471 485.554H89.3364L89.2624 488.917H87.5899L87.7614 481.122H89.4339L89.3666 484.179H92.5012L92.5685 481.122H94.241L94.0695 488.917ZM98.6898 481.122C99.3913 481.122 99.9769 481.188 100.447 481.319C100.924 481.442 101.277 481.65 101.507 481.941C101.745 482.225 101.858 482.611 101.847 483.098C101.841 483.389 101.787 483.655 101.686 483.895C101.585 484.135 101.44 484.332 101.252 484.485C101.071 484.637 100.851 484.736 100.592 484.779L100.591 484.834C100.855 484.885 101.093 484.976 101.305 485.107C101.516 485.238 101.682 485.427 101.802 485.675C101.922 485.922 101.977 486.249 101.968 486.657C101.958 487.13 101.831 487.538 101.587 487.88C101.351 488.215 101.013 488.473 100.573 488.655C100.134 488.829 99.6148 488.917 99.0167 488.917H96.0593L96.2308 481.122H98.6898ZM98.8101 484.212C99.2974 484.212 99.6351 484.135 99.8231 483.982C100.018 483.83 100.119 483.608 100.126 483.316C100.132 483.018 100.026 482.803 99.8076 482.672C99.5889 482.541 99.2396 482.476 98.7597 482.476H97.8736L97.8354 484.212H98.8101ZM97.8066 485.522L97.7619 487.552H98.8584C99.3606 487.552 99.7134 487.458 99.9169 487.268C100.121 487.072 100.226 486.814 100.233 486.493C100.237 486.297 100.197 486.126 100.111 485.98C100.033 485.835 99.8919 485.722 99.6869 485.642C99.4819 485.562 99.2022 485.522 98.8477 485.522H97.8066ZM108.054 488.917H103.501L103.673 481.122H108.225L108.195 482.476H105.315L105.278 484.19H107.958L107.928 485.544H105.248L105.204 487.552H108.084L108.054 488.917ZM112.396 481.122C113.415 481.122 114.152 481.341 114.608 481.777C115.071 482.207 115.294 482.8 115.278 483.557C115.27 483.899 115.211 484.226 115.101 484.539C114.991 484.845 114.811 485.121 114.562 485.369C114.321 485.609 114.003 485.798 113.608 485.937C113.214 486.075 112.729 486.144 112.153 486.144H111.433L111.372 488.917H109.699L109.871 481.122H112.396ZM112.278 482.476H111.513L111.462 484.79H112.016C112.334 484.79 112.608 484.75 112.839 484.67C113.069 484.59 113.249 484.463 113.379 484.288C113.508 484.113 113.576 483.888 113.582 483.611C113.59 483.226 113.49 482.942 113.279 482.76C113.069 482.571 112.735 482.476 112.278 482.476ZM120.154 482.389C119.837 482.389 119.551 482.45 119.297 482.574C119.051 482.698 118.84 482.876 118.665 483.109C118.49 483.335 118.355 483.611 118.259 483.939C118.171 484.266 118.122 484.634 118.113 485.041C118.101 485.594 118.157 486.068 118.281 486.461C118.413 486.846 118.624 487.141 118.915 487.345C119.206 487.549 119.58 487.65 120.038 487.65C120.363 487.65 120.685 487.614 121.004 487.541C121.331 487.469 121.684 487.367 122.063 487.236L122.033 488.622C121.683 488.76 121.337 488.862 120.996 488.928C120.655 488.993 120.274 489.026 119.853 489.026C119.041 489.026 118.372 488.862 117.848 488.535C117.331 488.2 116.954 487.734 116.716 487.137C116.478 486.533 116.368 485.831 116.385 485.03C116.398 484.441 116.491 483.902 116.665 483.415C116.838 482.92 117.084 482.494 117.402 482.137C117.727 481.781 118.121 481.504 118.583 481.308C119.052 481.111 119.586 481.013 120.184 481.013C120.576 481.013 120.966 481.064 121.355 481.166C121.752 481.26 122.129 481.391 122.487 481.559L121.915 482.902C121.623 482.763 121.326 482.643 121.026 482.541C120.733 482.44 120.442 482.389 120.154 482.389ZM123.878 481.122H125.385L125.302 484.889C125.298 485.07 125.29 485.274 125.277 485.5C125.265 485.725 125.253 485.947 125.24 486.166C125.228 486.377 125.217 486.562 125.206 486.723C125.195 486.875 125.186 486.981 125.177 487.039H125.21L128.996 481.122H131L130.829 488.917H129.334L129.416 485.172C129.42 484.976 129.429 484.761 129.441 484.528C129.454 484.288 129.466 484.059 129.478 483.84C129.498 483.622 129.513 483.433 129.524 483.273C129.543 483.105 129.556 482.996 129.565 482.945H129.52L125.723 488.917H123.707L123.878 481.122ZM135.549 485.926L133.634 488.917H131.773L134.097 485.489C133.885 485.402 133.673 485.274 133.463 485.107C133.253 484.932 133.08 484.703 132.946 484.419C132.812 484.128 132.75 483.771 132.759 483.349C132.775 482.629 133.05 482.079 133.582 481.701C134.115 481.315 134.854 481.122 135.799 481.122H138.369L138.197 488.917H136.525L136.591 485.926H135.549ZM135.836 482.476C135.548 482.476 135.3 482.509 135.091 482.574C134.891 482.64 134.733 482.745 134.619 482.891C134.513 483.036 134.457 483.229 134.451 483.469C134.444 483.811 134.552 484.084 134.777 484.288C135.009 484.485 135.361 484.583 135.834 484.583H136.62L136.666 482.476H135.836Z" fill="white"/>
</svg>
