<svg width="249" height="716" viewBox="0 0 249 716" fill="none" xmlns="http://www.w3.org/2000/svg">
<path d="M5.8176 29.6162C5.8176 31.413 7.27416 32.8695 9.07093 32.8695C10.8677 32.8695 12.3243 31.413 12.3243 29.6162C12.3243 27.8194 10.8677 26.3629 9.07093 26.3629C7.27416 26.3629 5.8176 27.8194 5.8176 29.6162ZM223.636 74.3744L223.939 74.9036L225.339 74.1005L223.758 73.7768L223.636 74.3744ZM52.6345 172.449L52.3311 171.92L51.1971 172.57L52.424 173.022L52.6345 172.449ZM162.025 212.685L162.404 213.163L163.257 212.488L162.236 212.112L162.025 212.685ZM8.62695 332.135L8.25218 331.653L7.23755 332.443L8.49131 332.729L8.62695 332.135ZM223.636 381.172L223.93 381.706L225.335 380.934L223.771 380.577L223.636 381.172ZM8.62695 499.364L8.3331 498.83L7.40461 499.34L8.31221 499.887L8.62695 499.364ZM223.636 628.872L223.76 629.47L225.283 629.153L223.951 628.35L223.636 628.872ZM108.586 652.816L108.698 653.416L108.71 653.413L108.586 652.816ZM27.6229 667.995L27.5105 667.396L25.371 667.797L27.4073 668.566L27.6229 667.995ZM141.907 712.387C141.907 714.184 143.363 715.64 145.16 715.64C146.957 715.64 148.414 714.184 148.414 712.387C148.414 710.59 146.957 709.134 145.16 709.134C143.363 709.134 141.907 710.59 141.907 712.387ZM8.95308 30.2147C54.4144 39.1665 54.2982 39.353 69.6917 42.8023C85.0961 46.254 116.009 52.9681 223.513 74.9721L223.758 73.7768C116.254 51.773 85.3508 45.0608 69.9584 41.6118C54.555 38.1603 54.6609 37.9716 9.18878 29.0177L8.95308 30.2147ZM223.332 73.8453C180.582 98.364 159.207 110.623 148.519 116.753C143.175 119.818 140.504 121.35 139.168 122.116C138.5 122.5 138.166 122.691 137.999 122.787C137.915 122.835 137.873 122.859 137.853 122.871C137.842 122.877 137.837 122.88 137.834 122.881C137.833 122.882 137.832 122.882 137.832 122.882C137.832 122.882 137.832 122.882 137.832 122.882C137.832 122.882 137.832 122.882 137.833 122.882C138.581 122.996 138.643 123.75 138.643 123.75C138.643 123.75 138.581 122.996 137.833 122.882C137.832 122.882 137.832 122.882 137.832 122.882C137.832 122.883 137.832 122.883 137.831 122.883C137.831 122.883 137.83 122.883 137.829 122.884C137.826 122.886 137.821 122.889 137.811 122.895C137.79 122.907 137.748 122.93 137.665 122.978C137.498 123.074 137.164 123.266 136.496 123.649C135.16 124.415 132.488 125.947 127.144 129.012C116.457 135.142 95.0814 147.401 52.3311 171.92L52.938 172.978C95.6883 148.46 117.063 136.2 127.751 130.071C133.095 127.006 135.767 125.473 137.103 124.707C137.771 124.324 138.105 124.132 138.272 124.037C138.355 123.989 138.397 123.965 138.418 123.953C138.428 123.947 138.433 123.944 138.436 123.942C138.437 123.942 138.438 123.941 138.438 123.941C138.438 123.941 138.438 123.941 138.438 123.941C138.438 123.941 138.438 123.941 138.438 123.942C137.689 123.828 137.628 123.073 137.628 123.073C137.628 123.073 137.689 123.828 138.438 123.942C138.438 123.941 138.438 123.941 138.438 123.941C138.439 123.941 138.439 123.941 138.439 123.941C138.439 123.941 138.44 123.94 138.441 123.939C138.444 123.938 138.449 123.935 138.46 123.929C138.48 123.917 138.522 123.893 138.606 123.845C138.773 123.749 139.107 123.558 139.775 123.175C141.111 122.409 143.782 120.876 149.126 117.811C159.814 111.682 181.189 99.4223 223.939 74.9036L223.332 73.8453ZM52.424 173.022C79.7717 183.081 93.4455 188.11 100.282 190.625C103.701 191.882 105.41 192.511 106.265 192.825C106.692 192.982 106.906 193.061 107.013 193.1C107.066 193.12 107.093 193.13 107.106 193.135C107.113 193.137 107.116 193.138 107.118 193.139C107.119 193.139 107.119 193.139 107.119 193.139C107.119 193.139 107.119 193.139 107.119 193.139C107.119 193.139 107.119 193.139 107.119 193.139C106.729 192.46 107.33 191.957 107.33 191.957C107.33 191.957 106.729 192.46 107.119 193.139C107.119 193.139 107.119 193.139 107.119 193.139C107.119 193.139 107.119 193.139 107.12 193.139C107.12 193.14 107.12 193.14 107.121 193.14C107.123 193.141 107.126 193.142 107.133 193.144C107.146 193.149 107.173 193.159 107.226 193.179C107.333 193.218 107.547 193.297 107.974 193.454C108.829 193.768 110.538 194.397 113.956 195.654C120.793 198.169 134.467 203.198 161.815 213.257L162.236 212.112C134.888 202.053 121.214 197.024 114.377 194.509C110.959 193.252 109.25 192.623 108.395 192.309C107.968 192.152 107.754 192.073 107.647 192.034C107.594 192.014 107.567 192.004 107.554 191.999C107.547 191.997 107.544 191.996 107.542 191.995C107.541 191.995 107.541 191.995 107.541 191.995C107.541 191.994 107.541 191.994 107.541 191.995C107.541 191.995 107.541 191.995 107.541 191.995C107.93 192.674 107.33 193.177 107.33 193.177C107.33 193.177 107.93 192.674 107.541 191.995C107.541 191.995 107.541 191.995 107.541 191.994C107.541 191.994 107.54 191.994 107.54 191.994C107.54 191.994 107.54 191.994 107.539 191.994C107.537 191.993 107.534 191.992 107.527 191.99C107.514 191.985 107.487 191.975 107.434 191.955C107.327 191.916 107.113 191.837 106.686 191.68C105.831 191.366 104.122 190.737 100.704 189.48C93.8667 186.965 80.1928 181.936 52.8451 171.877L52.424 173.022ZM161.647 212.206C124.15 241.884 105.402 256.721 95.9756 264.152C91.261 267.868 88.8814 269.728 87.6541 270.665C87.037 271.137 86.7237 271.365 86.5549 271.477C86.5142 271.504 86.4856 271.522 86.4659 271.534C86.4461 271.546 86.4388 271.549 86.4401 271.548C86.4586 271.54 86.4847 271.533 86.4762 271.535C86.3352 271.566 86.2108 271.613 85.9608 271.766C85.7255 271.91 85.3415 272.169 84.6711 272.652C83.325 273.621 80.7754 275.524 75.8485 279.286C65.9919 286.812 46.6018 301.791 8.25218 331.653L9.00173 332.616C47.3513 302.753 66.7374 287.777 76.5888 280.256C81.5159 276.494 84.0533 274.6 85.384 273.642C86.052 273.161 86.4038 272.925 86.5964 272.807C86.6926 272.749 86.7341 272.729 86.7456 272.724C86.749 272.722 86.7451 272.724 86.7362 272.727C86.7284 272.729 86.7221 272.73 86.7355 272.727C86.7804 272.718 86.8564 272.701 86.9584 272.653C87.0412 272.614 87.1292 272.561 87.2314 272.492C87.4372 272.355 87.7797 272.104 88.3944 271.635C89.6307 270.691 92.0181 268.825 96.7309 265.11C106.159 257.679 124.908 242.84 162.404 213.163L161.647 212.206ZM223.342 380.637C169.59 410.185 142.714 424.959 129.276 432.346C122.557 436.04 119.197 437.887 117.517 438.81C116.677 439.272 116.257 439.503 116.047 439.618C115.942 439.676 115.89 439.705 115.864 439.719C115.851 439.726 115.844 439.73 115.841 439.732C115.839 439.732 115.838 439.733 115.838 439.733C115.838 439.733 115.838 439.733 115.837 439.733C115.837 439.733 115.837 439.734 115.837 439.734C115.541 440.42 116.131 440.878 116.131 440.878C116.131 440.878 115.541 440.42 115.837 439.734C115.837 439.734 115.837 439.734 115.837 439.733C115.837 439.733 115.837 439.734 115.837 439.734C115.837 439.734 115.836 439.734 115.834 439.735C115.831 439.737 115.824 439.741 115.811 439.748C115.785 439.762 115.733 439.791 115.628 439.849C115.418 439.964 114.998 440.195 114.158 440.657C112.478 441.58 109.118 443.427 102.399 447.12C88.9614 454.507 62.0853 469.281 8.3331 498.83L8.9208 499.899C62.673 470.351 89.5491 455.577 102.987 448.19C109.706 444.496 113.066 442.649 114.745 441.726C115.585 441.264 116.005 441.033 116.215 440.918C116.32 440.86 116.373 440.831 116.399 440.817C116.412 440.81 116.419 440.806 116.422 440.804C116.424 440.803 116.424 440.803 116.425 440.803C116.425 440.803 116.425 440.803 116.425 440.802C116.425 440.802 116.426 440.802 116.426 440.802C116.722 440.116 116.131 439.658 116.131 439.658C116.131 439.658 116.722 440.116 116.426 440.802C116.426 440.802 116.425 440.802 116.425 440.802C116.425 440.802 116.425 440.802 116.426 440.802C116.426 440.802 116.427 440.802 116.428 440.801C116.432 440.799 116.438 440.795 116.451 440.788C116.478 440.774 116.53 440.745 116.635 440.687C116.845 440.572 117.265 440.341 118.105 439.879C119.785 438.956 123.144 437.109 129.863 433.415C143.301 426.028 170.177 411.254 223.93 381.706L223.342 380.637ZM8.31221 499.887C62.0644 532.264 88.9405 548.452 102.379 556.547C109.098 560.594 112.457 562.617 114.137 563.629C114.977 564.135 115.397 564.388 115.607 564.514C115.712 564.578 115.764 564.609 115.79 564.625C115.804 564.633 115.81 564.637 115.814 564.639C115.815 564.64 115.816 564.641 115.817 564.641C115.817 564.641 115.818 564.642 115.82 564.643C115.821 564.643 115.826 564.646 115.829 564.648C116.456 564.635 116.74 564.075 116.74 564.075C116.74 564.075 116.456 564.635 115.829 564.648C115.826 564.646 115.821 564.644 115.82 564.643C115.819 564.642 115.818 564.642 115.818 564.642C115.818 564.642 115.818 564.642 115.818 564.642C115.818 564.642 115.818 564.642 115.818 564.642C115.819 564.642 115.819 564.642 115.82 564.643C115.823 564.645 115.83 564.649 115.843 564.657C115.869 564.672 115.922 564.704 116.027 564.767C116.237 564.894 116.656 565.147 117.496 565.653C119.176 566.664 122.536 568.688 129.255 572.735C142.693 580.829 169.569 597.018 223.321 629.395L223.951 628.35C170.198 595.973 143.322 579.784 129.884 571.69C123.165 567.643 119.806 565.619 118.126 564.608C117.286 564.102 116.866 563.849 116.656 563.722C116.551 563.659 116.499 563.627 116.472 563.612C116.459 563.604 116.453 563.6 116.449 563.598C116.448 563.597 116.446 563.596 116.446 563.596C116.446 563.596 116.444 563.595 116.443 563.594C116.442 563.593 116.437 563.59 116.434 563.589C115.807 563.602 115.523 564.162 115.523 564.162C115.523 564.162 115.807 563.602 116.434 563.589C116.437 563.59 116.442 563.593 116.443 563.594C116.444 563.594 116.444 563.595 116.445 563.595C116.445 563.595 116.445 563.595 116.445 563.595C116.445 563.595 116.445 563.595 116.444 563.595C116.444 563.594 116.443 563.594 116.443 563.594C116.439 563.592 116.433 563.588 116.42 563.58C116.394 563.564 116.341 563.533 116.236 563.469C116.026 563.343 115.606 563.09 114.766 562.584C113.087 561.572 109.727 559.549 103.008 555.502C89.57 547.407 62.6939 531.219 8.94169 498.842L8.31221 499.887ZM8.49131 332.729C62.2435 344.989 89.1196 351.118 102.558 354.183C109.277 355.715 112.636 356.482 114.316 356.865C115.156 357.056 115.576 357.152 115.786 357.2C115.891 357.224 115.943 357.236 115.969 357.242C115.983 357.245 115.989 357.246 115.992 357.247C115.994 357.247 115.995 357.248 115.995 357.248C115.995 357.248 115.996 357.248 115.996 357.248C115.996 357.248 115.995 357.248 115.995 357.248C115.525 356.585 116.131 356.043 116.131 356.043C116.131 356.043 115.525 356.585 115.995 357.248C115.996 357.248 115.996 357.248 115.996 357.248C115.996 357.248 115.996 357.248 115.996 357.248C115.997 357.248 115.997 357.248 115.999 357.249C116.002 357.249 116.009 357.251 116.022 357.254C116.048 357.26 116.101 357.272 116.206 357.296C116.416 357.344 116.836 357.439 117.675 357.631C119.355 358.014 122.715 358.78 129.434 360.313C142.872 363.378 169.748 369.507 223.5 381.767L223.771 380.577C170.019 368.318 143.143 362.188 129.705 359.123C122.986 357.591 119.627 356.825 117.947 356.442C117.107 356.25 116.687 356.154 116.477 356.106C116.372 356.082 116.319 356.07 116.293 356.064C116.28 356.061 116.274 356.06 116.27 356.059C116.269 356.059 116.268 356.059 116.267 356.059C116.267 356.058 116.267 356.058 116.267 356.058C116.267 356.058 116.267 356.058 116.267 356.059C116.738 356.722 116.131 357.263 116.131 357.263C116.131 357.263 116.738 356.722 116.267 356.059C116.267 356.058 116.267 356.058 116.267 356.058C116.267 356.058 116.267 356.058 116.267 356.058C116.266 356.058 116.265 356.058 116.264 356.058C116.26 356.057 116.254 356.055 116.241 356.052C116.215 356.046 116.162 356.034 116.057 356.011C115.847 355.963 115.427 355.867 114.587 355.675C112.907 355.292 109.548 354.526 102.829 352.994C89.3909 349.929 62.5148 343.799 8.76259 331.54L8.49131 332.729ZM223.511 628.275L108.462 652.219L108.71 653.413L223.76 629.47L223.511 628.275ZM108.474 652.217L27.5105 667.396L27.7353 668.595L108.698 653.416L108.474 652.217ZM27.4073 668.566L144.945 712.958L145.376 711.816L27.8384 667.425L27.4073 668.566Z" fill="white"/>
<path d="M45.6477 39.6002C45.6828 34.7742 49.576 30.9437 54.2914 30.992C59.0068 31.0404 62.8436 34.95 62.8085 39.776C62.7734 44.602 58.8803 48.4324 54.1649 48.3841C49.4494 48.3358 45.6126 44.4262 45.6477 39.6002Z" fill="black" stroke="white" stroke-width="1.78832"/>
<ellipse rx="3.52909" ry="3.62835" transform="matrix(-1.00747 -0.0103213 0.00720466 -0.990273 54.2285 39.6884)" fill="white"/>
<path d="M54.2891 31.3042L54.3326 25.3158" stroke="white" stroke-width="2.38443"/>
<path d="M191.883 93.5446C194.186 97.7863 192.629 103.021 188.478 105.259C184.327 107.496 179.078 105.928 176.776 101.686C174.474 97.4447 176.03 92.2096 180.181 89.9724C184.333 87.7352 189.581 89.303 191.883 93.5446Z" fill="black" stroke="white" stroke-width="1.78832"/>
<ellipse rx="3.52909" ry="3.62835" transform="matrix(0.886928 -0.47798 0.472394 0.870366 184.329 97.6157)" fill="white"/>
<path d="M188.329 104.984L191.186 110.247" stroke="white" stroke-width="2.38443"/>
<path d="M43.9939 176.579C42.0588 172.157 44.0525 167.073 48.3781 165.195C52.7037 163.317 57.8009 165.323 59.736 169.744C61.6711 174.165 59.6774 179.25 55.3518 181.128C51.0262 183.006 45.929 181 43.9939 176.579Z" fill="black" stroke="white" stroke-width="1.78832"/>
<ellipse rx="3.52909" ry="3.62835" transform="matrix(-0.924184 0.401236 -0.397072 -0.907209 51.8651 173.161)" fill="white"/>
<path d="M48.5039 165.48L46.1027 159.994" stroke="white" stroke-width="2.38443"/>
<path d="M148.524 211.448C151.776 207.882 157.232 207.635 160.707 210.823C164.182 214.011 164.422 219.483 161.17 223.049C157.918 226.615 152.463 226.862 148.988 223.674C145.513 220.486 145.272 215.014 148.524 211.448Z" fill="black" stroke="white" stroke-width="1.78832"/>
<ellipse rx="3.52909" ry="3.62835" transform="matrix(-0.74244 -0.681094 0.66728 -0.731731 154.847 217.249)" fill="white"/>
<path d="M160.496 211.054L164.531 206.629" stroke="white" stroke-width="2.38443"/>
<path d="M45.8459 340.474C47.031 335.796 51.7253 333.004 56.2931 334.176C60.861 335.348 63.6546 340.059 62.4695 344.738C61.2844 349.416 56.5901 352.208 52.0222 351.036C47.4544 349.864 44.6608 345.153 45.8459 340.474Z" fill="black" stroke="white" stroke-width="1.78832"/>
<ellipse rx="3.52909" ry="3.62835" transform="matrix(-0.975937 -0.250306 0.243177 -0.959978 54.1579 342.606)" fill="white"/>
<path d="M56.2168 334.479L57.6874 328.674" stroke="white" stroke-width="2.38443"/>
<path d="M187.801 411.684C182.978 411.527 179.247 407.539 179.414 402.826C179.581 398.113 183.586 394.376 188.41 394.533C193.233 394.69 196.965 398.679 196.797 403.391C196.63 408.104 192.625 411.841 187.801 411.684Z" fill="black" stroke="white" stroke-width="1.78832"/>
<ellipse rx="3.52909" ry="3.62835" transform="matrix(-0.0357319 1.00689 -0.989777 -0.0321824 188.106 403.109)" fill="white"/>
<path d="M179.726 402.836L173.74 402.642" stroke="white" stroke-width="2.38443"/>
<path d="M16.4878 493.286C21.314 493.288 25.1714 497.154 25.1559 501.87C25.1404 506.586 21.2575 510.449 16.4314 510.448C11.6053 510.446 7.74785 506.58 7.76336 501.864C7.77887 497.149 11.6617 493.285 16.4878 493.286Z" fill="black" stroke="white" stroke-width="1.78832"/>
<ellipse rx="3.52909" ry="3.62835" transform="matrix(0.00331454 -1.00752 0.9903 0.00031756 16.4593 501.867)" fill="white"/>
<path d="M24.8438 501.87L30.8323 501.872" stroke="white" stroke-width="2.38443"/>
<path d="M114.554 559.488C118.36 556.521 123.78 557.197 126.667 560.925C129.555 564.653 128.87 570.088 125.063 573.055C121.257 576.022 115.837 575.345 112.949 571.617C110.062 567.889 110.747 562.454 114.554 559.488Z" fill="black" stroke="white" stroke-width="1.78832"/>
<ellipse rx="3.52909" ry="3.62835" transform="matrix(-0.617002 -0.796502 0.78108 -0.608775 119.809 566.271)" fill="white"/>
<path d="M126.422 561.117L131.145 557.436" stroke="white" stroke-width="2.38443"/>
<path d="M212.718 624.252C215.617 620.394 221.025 619.631 224.786 622.476C228.548 625.32 229.306 630.745 226.406 634.603C223.507 638.461 218.099 639.224 214.337 636.379C210.576 633.535 209.818 628.11 212.718 624.252Z" fill="black" stroke="white" stroke-width="1.78832"/>
<ellipse rx="3.52909" ry="3.62835" transform="matrix(-0.803625 -0.607695 0.594958 -0.791655 219.562 629.427)" fill="white"/>
<path d="M224.599 622.725L228.196 617.938" stroke="white" stroke-width="2.38443"/>
<path d="M23.6568 671.632C22.2741 667.008 24.8717 662.204 29.3937 660.866C33.9157 659.529 38.7309 662.14 40.1136 666.764C41.4963 671.388 38.8987 676.192 34.3767 677.53C29.8547 678.867 25.0395 676.256 23.6568 671.632Z" fill="black" stroke="white" stroke-width="1.78832"/>
<ellipse rx="3.52909" ry="3.62835" transform="matrix(-0.966142 0.285789 -0.283722 -0.948786 31.8842 669.198)" fill="white"/>
<path d="M29.4834 661.166L27.7677 655.428" stroke="white" stroke-width="2.38443"/>
<path d="M35.355 1.15565H33.8812L31.1965 8.93141H32.6259L33.3055 6.87023H36.4303L37.28 8.93141H38.7648L35.355 1.15565ZM36.0169 5.8451H33.6123L34.6897 2.57339L36.0169 5.8451ZM45.5056 1.16656H44.1205L44.2644 4.25287H40.652L40.5081 1.16656H39.1229L39.485 8.93141H40.8701L40.7074 5.44159H44.3198L44.4826 8.93141H45.8677L45.5056 1.16656ZM50.7429 1.15565H49.2691L46.5844 8.93141H48.0139L48.6934 6.87023H51.8183L52.6679 8.93141H54.1528L50.7429 1.15565ZM51.4048 5.8451H49.0002L50.0776 2.57339L51.4048 5.8451ZM61.0672 8.93141L60.7051 1.16656L55.5525 1.16656L55.6074 5.67061C55.6329 7.64454 55.216 7.97171 54.6509 7.97171C54.5401 7.97171 54.2731 7.9499 54.1038 7.88446L54.1527 8.93141C54.3552 8.99684 54.6801 9.07318 54.9904 9.07318C56.1206 9.07318 56.978 8.21163 56.9655 6.0414L56.9371 2.34437H59.3749L59.6821 8.93141H61.0672ZM62.6751 8.93141H64.2819L67.395 2.9769L67.6727 8.93141H69.0578L68.6957 1.16656H67.0889L63.9758 7.12106L63.6981 1.16656H62.313L62.6751 8.93141ZM76.4513 6.68484C76.4051 5.69242 75.7504 4.96174 74.8669 4.78725L74.8654 4.75453C75.4677 4.60185 76.0889 3.90389 76.0508 3.08596C75.9827 1.6246 74.6673 0.981163 73.1048 0.981163C71.4981 0.981163 70.2568 1.69003 70.2712 3.42404H71.5898C71.6332 2.45343 72.2687 2.06083 73.2438 2.06083C74.1303 2.06083 74.6589 2.46434 74.6909 3.15139C74.725 3.88208 74.1933 4.36193 73.4841 4.36193H72.5201L72.5694 5.41978H73.5334C74.431 5.41978 75.0265 5.83419 75.0652 6.66303C75.1064 7.54639 74.5747 8.02624 73.5774 8.02624C72.4582 8.02624 71.5166 7.55729 71.4607 6.35767H70.0977C70.1852 8.23344 71.6775 9.1059 73.5502 9.1059C75.7664 9.1059 76.4961 7.64454 76.4513 6.68484ZM30.9302 16.8817H29.5451C29.4544 18.0268 28.9063 18.8665 27.6209 18.8665C25.9366 18.8665 25.2252 17.3942 25.1581 15.9547C25.0915 14.526 25.6987 13.0538 27.3609 13.0538C28.3803 13.0538 29.1487 13.6099 29.3808 14.5478H30.7549C30.405 12.7484 28.9027 11.8978 27.3292 11.8978C24.9356 11.8978 23.6591 13.7517 23.7619 15.9547C23.8763 18.4085 25.4142 20.0225 27.6415 20.0225C29.614 20.0225 30.8741 18.7683 30.9302 16.8817ZM37.4111 12.0722H30.9952L31.0501 13.2501H33.5655L33.8726 19.8371H35.2578L34.9506 13.2501H37.466L37.4111 12.0722ZM38.3394 12.0722L38.7015 19.8371H40.0866L39.9472 16.8489H42.1745C43.7702 16.8489 44.6905 15.911 44.6219 14.4388C44.5461 12.8138 43.3923 12.0722 41.7634 12.0722H38.3394ZM39.7774 13.2064H41.5836C42.459 13.2064 43.2247 13.4682 43.2715 14.4715C43.3142 15.3876 42.7215 15.7475 41.824 15.7475H39.8959L39.7774 13.2064ZM48.4866 12.0613H47.0128L44.3281 19.8371H45.7576L46.4371 17.7759H49.562L50.4116 19.8371H51.8965L48.4866 12.0613ZM49.1485 16.7508L46.7439 16.7508L47.8213 13.4791L49.1485 16.7508ZM58.6372 12.0722H57.2521L57.396 15.1586H53.7836L53.6397 12.0722H52.2545L52.6166 19.8371H54.0018L53.839 16.3473H57.4514L57.6142 19.8371H58.9993L58.6372 12.0722ZM60.6136 19.8371H62.2203L65.3335 13.8826L65.6111 19.8371H66.9963L66.6342 12.0722H65.0274L61.9143 18.0268L61.6366 12.0722H60.2515L60.6136 19.8371ZM74.9051 18.6593L74.5979 12.0722H73.2128L73.5199 18.6593H69.9075L69.6003 12.0722H68.2152L68.5773 19.8371H74.4835L74.5735 21.7674H75.9143L75.7694 18.6593H74.9051ZM82.6306 17.4269C82.5594 15.9001 81.5552 15.0386 79.8266 15.0386H77.9428L77.8045 12.0722H76.4193L76.7814 19.8371H80.0503C81.7679 19.8371 82.7023 18.9646 82.6306 17.4269ZM81.247 17.4597C81.2862 18.2994 80.8517 18.7247 79.9431 18.7247H78.1147L77.9947 16.151H79.8009C80.6652 16.151 81.2089 16.6417 81.247 17.4597ZM83.3117 12.0722L83.6738 19.8371H85.059L84.6969 12.0722H83.3117Z" fill="white"/>
<path d="M178.649 125.128C178.334 125.128 178.052 125.19 177.802 125.315C177.56 125.44 177.355 125.619 177.186 125.854C177.018 126.081 176.889 126.36 176.801 126.69C176.721 127.02 176.68 127.39 176.68 127.801C176.68 128.358 176.746 128.835 176.878 129.231C177.018 129.62 177.234 129.917 177.527 130.122C177.821 130.327 178.195 130.43 178.649 130.43C178.972 130.43 179.291 130.393 179.606 130.32C179.929 130.247 180.277 130.144 180.651 130.012V131.409C180.307 131.548 179.966 131.651 179.628 131.717C179.291 131.783 178.913 131.816 178.495 131.816C177.689 131.816 177.021 131.651 176.493 131.321C175.973 130.984 175.588 130.514 175.338 129.913C175.089 129.304 174.964 128.597 174.964 127.79C174.964 127.196 175.045 126.653 175.206 126.162C175.368 125.663 175.602 125.234 175.91 124.875C176.226 124.516 176.611 124.237 177.065 124.039C177.527 123.841 178.055 123.742 178.649 123.742C179.038 123.742 179.427 123.793 179.815 123.896C180.211 123.991 180.589 124.123 180.948 124.292L180.409 125.645C180.116 125.506 179.819 125.385 179.518 125.282C179.225 125.179 178.935 125.128 178.649 125.128ZM185.345 131.706H183.684V125.238H181.55V123.852H187.479V125.238H185.345V131.706ZM191.198 123.852C192.21 123.852 192.947 124.072 193.409 124.512C193.879 124.945 194.113 125.542 194.113 126.305C194.113 126.65 194.062 126.98 193.959 127.295C193.857 127.603 193.684 127.882 193.442 128.131C193.208 128.373 192.896 128.564 192.507 128.703C192.119 128.842 191.638 128.912 191.066 128.912H190.351V131.706H188.69V123.852H191.198ZM191.11 125.216H190.351V127.548H190.901C191.217 127.548 191.488 127.508 191.715 127.427C191.943 127.346 192.119 127.218 192.243 127.042C192.368 126.866 192.43 126.639 192.43 126.36C192.43 125.971 192.324 125.685 192.111 125.502C191.899 125.311 191.565 125.216 191.11 125.216ZM199.857 131.706L199.285 129.836H196.425L195.853 131.706H194.06L196.832 123.819H198.867L201.65 131.706H199.857ZM198.317 126.613C198.28 126.488 198.232 126.331 198.174 126.14C198.115 125.949 198.056 125.755 197.998 125.557C197.939 125.359 197.891 125.187 197.855 125.04C197.818 125.187 197.767 125.37 197.701 125.59C197.642 125.803 197.583 126.008 197.525 126.206C197.473 126.397 197.433 126.532 197.404 126.613L196.843 128.439H198.889L198.317 126.613ZM204.896 131.706H203.235V125.238H201.101V123.852H207.03V125.238H204.896V131.706ZM212.762 131.706H208.241V123.852H212.762V125.216H209.902V126.943H212.564V128.307H209.902V130.331H212.762V131.706ZM219.357 123.852V125.227H216.057V131.706H214.396V123.852H219.357ZM220.562 123.852H222.058V127.647C222.058 127.83 222.055 128.036 222.047 128.263C222.04 128.49 222.033 128.714 222.025 128.934C222.018 129.147 222.011 129.334 222.003 129.495C221.996 129.649 221.989 129.755 221.981 129.814H222.014L225.644 123.852H227.635V131.706H226.15V127.933C226.15 127.735 226.154 127.519 226.161 127.284C226.169 127.042 226.176 126.811 226.183 126.591C226.198 126.371 226.209 126.18 226.216 126.019C226.231 125.85 226.242 125.74 226.249 125.689H226.205L222.564 131.706H220.562V123.852ZM232.258 128.692L230.421 131.706H228.573L230.806 128.252C230.593 128.164 230.381 128.036 230.168 127.867C229.955 127.691 229.779 127.46 229.64 127.174C229.501 126.881 229.431 126.521 229.431 126.096C229.431 125.37 229.691 124.816 230.212 124.435C230.733 124.046 231.462 123.852 232.401 123.852H234.953V131.706H233.292V128.692H232.258ZM232.467 125.216C232.181 125.216 231.935 125.249 231.73 125.315C231.532 125.381 231.378 125.487 231.268 125.634C231.165 125.781 231.114 125.975 231.114 126.217C231.114 126.562 231.228 126.837 231.455 127.042C231.69 127.24 232.042 127.339 232.511 127.339H233.292V125.216H232.467Z" fill="white"/>
<path d="M23.8371 138.657H21.9376L18.9561 134.693L19.0772 138.657H17.4096L17.1707 130.838H18.8384L18.9541 134.627L21.6656 130.838H23.4436L20.687 134.594L23.8371 138.657ZM31.6506 134.737C31.6691 135.342 31.6086 135.894 31.4692 136.39C31.3369 136.879 31.1216 137.303 30.8233 137.66C30.5323 138.018 30.1505 138.292 29.6777 138.482C29.2123 138.672 28.6594 138.766 28.0188 138.766C27.3783 138.766 26.8158 138.672 26.3315 138.482C25.8542 138.285 25.4557 138.011 25.1357 137.66C24.8229 137.303 24.5816 136.876 24.4119 136.379C24.2494 135.883 24.159 135.331 24.1405 134.726C24.1157 133.915 24.2267 133.211 24.4735 132.612C24.7276 132.013 25.1257 131.55 25.6679 131.221C26.2172 130.885 26.9225 130.718 27.784 130.718C28.638 130.718 29.3463 130.885 29.9087 131.221C30.4709 131.55 30.8938 132.017 31.1774 132.623C31.4681 133.222 31.6258 133.926 31.6506 134.737ZM25.8968 134.737C25.9135 135.284 25.9978 135.755 26.1498 136.149C26.3017 136.543 26.5281 136.846 26.8291 137.058C27.1301 137.27 27.5125 137.376 27.9763 137.376C28.4549 137.376 28.8345 137.27 29.1152 137.058C29.4032 136.846 29.6075 136.543 29.728 136.149C29.8558 135.755 29.9114 135.284 29.8946 134.737C29.8694 133.912 29.6951 133.265 29.3716 132.798C29.0481 132.331 28.5329 132.097 27.8261 132.097C27.3549 132.097 26.9753 132.203 26.6873 132.415C26.3992 132.627 26.1913 132.93 26.0634 133.324C25.9356 133.718 25.88 134.189 25.8968 134.737ZM39.8644 138.657H38.1967L38.0937 135.284H34.9683L35.0713 138.657H33.4037L33.1649 130.838H34.8325L34.9261 133.904H38.0515L37.9579 130.838H39.6255L39.8644 138.657ZM44.8854 138.657H43.2178L43.0211 132.218H40.8786L40.8364 130.838H46.789L46.8312 132.218H44.6887L44.8854 138.657ZM52.7828 138.657H48.2438L48.005 130.838H52.544L52.5855 132.196H49.7141L49.7666 133.915H52.4392L52.4807 135.273H49.8081L49.8696 137.288H52.741L52.7828 138.657ZM60.8842 138.657H59.2166L59.1136 135.284H55.9882L56.0912 138.657H54.4236L54.1848 130.838H55.8524L55.946 133.904H59.0714L58.9778 130.838H60.6454L60.8842 138.657ZM65.9053 138.657H64.2377L64.041 132.218H61.8985L61.8563 130.838H67.8089L67.8511 132.218H65.7086L65.9053 138.657ZM27.4987 152.594L27.2599 144.775H33.4996L33.7385 152.594H32.0709L31.8742 146.155H28.9696L29.1664 152.594H27.4987ZM41.9674 152.594H40.2998L40.1031 146.155H38.1704C38.1365 146.491 38.0998 146.856 38.0603 147.25C38.0282 147.645 37.9889 148.046 37.9425 148.455C37.9032 148.856 37.8597 149.24 37.812 149.605C37.764 149.963 37.7148 150.28 37.6644 150.558C37.5825 151.01 37.4655 151.397 37.3133 151.718C37.1685 152.04 36.9588 152.284 36.6841 152.452C36.4169 152.62 36.0623 152.704 35.6206 152.704C35.4733 152.704 35.3331 152.693 35.1999 152.671C35.0667 152.649 34.9407 152.62 34.8217 152.583L34.7803 151.226C34.8769 151.255 34.9697 151.28 35.0587 151.302C35.1551 151.324 35.2585 151.335 35.3689 151.335C35.5162 151.335 35.6362 151.288 35.729 151.193C35.8218 151.098 35.9016 150.937 35.9683 150.711C36.0348 150.477 36.0986 150.156 36.1597 149.747C36.1912 149.572 36.2278 149.324 36.2695 149.002C36.311 148.674 36.3582 148.291 36.4111 147.853C36.4711 147.407 36.53 146.925 36.5878 146.407C36.6454 145.881 36.6987 145.338 36.7478 144.775H41.7286L41.9674 152.594ZM48.7827 152.594L48.1516 150.733H45.2802L44.7628 152.594H42.9627L45.5058 144.743H47.5489L50.5829 152.594H48.7827ZM47.0817 147.524C47.0411 147.4 46.9885 147.243 46.9238 147.053C46.8591 146.863 46.7943 146.67 46.7293 146.473C46.6644 146.276 46.6113 146.104 46.57 145.958C46.5377 146.104 46.4917 146.287 46.4321 146.506C46.3797 146.717 46.3271 146.922 46.2742 147.119C46.2284 147.309 46.1921 147.444 46.1651 147.524L45.6574 149.342H47.7115L47.0817 147.524ZM58.0422 152.594H56.3746L56.2715 149.221H53.1461L53.2492 152.594H51.5816L51.3427 144.775H53.0103L53.104 147.842H56.2294L56.1357 144.775H57.8033L58.0422 152.594Z" fill="white"/>
<path d="M143.466 188.861C144.478 188.861 145.215 189.081 145.677 189.521C146.147 189.954 146.381 190.551 146.381 191.314C146.381 191.659 146.33 191.989 146.227 192.304C146.125 192.612 145.952 192.891 145.71 193.14C145.476 193.382 145.164 193.573 144.775 193.712C144.387 193.851 143.906 193.921 143.334 193.921H142.619V196.715H140.958V188.861H143.466ZM143.378 190.225H142.619V192.557H143.169C143.485 192.557 143.756 192.517 143.983 192.436C144.211 192.355 144.387 192.227 144.511 192.051C144.636 191.875 144.698 191.648 144.698 191.369C144.698 190.98 144.592 190.694 144.379 190.511C144.167 190.32 143.833 190.225 143.378 190.225ZM152.386 196.715H147.865V188.861H152.386V190.225H149.526V191.952H152.188V193.316H149.526V195.34H152.386V196.715ZM160.423 196.715H158.531L155.682 192.733V196.715H154.021V188.861H155.682V192.667L158.498 188.861H160.269L157.409 192.634L160.423 196.715ZM167.626 196.715H165.965V190.247H164.04C163.996 190.584 163.949 190.951 163.897 191.347C163.853 191.743 163.802 192.146 163.743 192.557C163.692 192.96 163.637 193.345 163.578 193.712C163.52 194.071 163.461 194.39 163.402 194.669C163.307 195.124 163.179 195.512 163.017 195.835C162.863 196.158 162.647 196.403 162.368 196.572C162.097 196.741 161.741 196.825 161.301 196.825C161.155 196.825 161.015 196.814 160.883 196.792C160.751 196.77 160.627 196.741 160.509 196.704V195.34C160.605 195.369 160.696 195.395 160.784 195.417C160.88 195.439 160.982 195.45 161.092 195.45C161.239 195.45 161.36 195.402 161.455 195.307C161.551 195.212 161.635 195.05 161.708 194.823C161.782 194.588 161.855 194.266 161.928 193.855C161.965 193.679 162.009 193.43 162.06 193.107C162.112 192.777 162.17 192.392 162.236 191.952C162.31 191.505 162.383 191.021 162.456 190.5C162.53 189.972 162.599 189.426 162.665 188.861H167.626V196.715ZM174.415 196.715L173.843 194.845H170.983L170.411 196.715H168.618L171.39 188.828H173.425L176.208 196.715H174.415ZM172.875 191.622C172.838 191.497 172.79 191.34 172.732 191.149C172.673 190.958 172.614 190.764 172.556 190.566C172.497 190.368 172.449 190.196 172.413 190.049C172.376 190.196 172.325 190.379 172.259 190.599C172.2 190.812 172.141 191.017 172.083 191.215C172.031 191.406 171.991 191.541 171.962 191.622L171.401 193.448H173.447L172.875 191.622ZM180.524 196.715L178.632 190.555H178.588C178.596 190.702 178.607 190.922 178.621 191.215C178.636 191.508 178.651 191.824 178.665 192.161C178.68 192.491 178.687 192.792 178.687 193.063V196.715H177.202V188.861H179.468L181.327 194.867H181.36L183.329 188.861H185.595V196.715H184.044V192.997C184.044 192.748 184.048 192.462 184.055 192.139C184.07 191.816 184.081 191.512 184.088 191.226C184.103 190.933 184.114 190.713 184.121 190.566H184.077L182.053 196.715H180.524ZM192.386 196.715L191.814 194.845H188.954L188.382 196.715H186.589L189.361 188.828H191.396L194.179 196.715H192.386ZM190.846 191.622C190.81 191.497 190.762 191.34 190.703 191.149C190.645 190.958 190.586 190.764 190.527 190.566C190.469 190.368 190.421 190.196 190.384 190.049C190.348 190.196 190.296 190.379 190.23 190.599C190.172 190.812 190.113 191.017 190.054 191.215C190.003 191.406 189.963 191.541 189.933 191.622L189.372 193.448H191.418L190.846 191.622Z" fill="white"/>
<path d="M62.0425 320.017H60.1235L57.1701 316.094L57.2338 320.017H55.5491L55.4235 312.279H57.1082L57.1691 316.029L59.9643 312.279H61.7606L58.9202 315.997L62.0425 320.017ZM69.994 316.137C70.0037 316.737 69.9345 317.283 69.7862 317.774C69.6453 318.258 69.4216 318.677 69.1149 319.031C68.8157 319.385 68.4259 319.656 67.9455 319.844C67.4725 320.032 66.9125 320.126 66.2654 320.126C65.6183 320.126 65.0515 320.032 64.5649 319.844C64.0858 319.649 63.6871 319.378 63.3691 319.031C63.0584 318.677 62.821 318.254 62.6568 317.763C62.5001 317.272 62.4168 316.726 62.4071 316.127C62.3941 315.325 62.5166 314.627 62.7748 314.035C63.0403 313.442 63.4494 312.984 64.002 312.659C64.5619 312.326 65.2769 312.16 66.1472 312.16C67.01 312.16 67.723 312.326 68.2862 312.659C68.8494 312.984 69.2697 313.446 69.5472 314.046C69.832 314.638 69.9809 315.335 69.994 316.137ZM64.1812 316.137C64.19 316.679 64.2682 317.145 64.4159 317.535C64.5636 317.926 64.7878 318.225 65.0888 318.435C65.3897 318.645 65.7744 318.749 66.243 318.749C66.7265 318.749 67.1116 318.645 67.3982 318.435C67.6924 318.225 67.9032 317.926 68.0307 317.535C68.1657 317.145 68.2288 316.679 68.22 316.137C68.2068 315.321 68.0402 314.682 67.7203 314.219C67.4004 313.757 66.8834 313.526 66.1694 313.526C65.6933 313.526 65.3083 313.63 65.0141 313.84C64.72 314.049 64.5055 314.349 64.3705 314.739C64.2355 315.13 64.1724 315.596 64.1812 316.137ZM78.2338 320.017H76.5492L76.4949 316.679H73.3375L73.3917 320.017H71.7071L71.5814 312.279H73.2661L73.3154 315.314H76.4728L76.4235 312.279H78.1082L78.2338 320.017ZM82.5893 312.279C83.2959 312.279 83.8883 312.344 84.3665 312.474C84.8519 312.597 85.216 312.803 85.4587 313.092C85.7087 313.374 85.8377 313.757 85.8455 314.241C85.8502 314.53 85.8062 314.794 85.7134 315.032C85.6205 315.27 85.4824 315.465 85.2989 315.617C85.1228 315.769 84.905 315.866 84.6454 315.91L84.6463 315.964C84.9149 316.015 85.1581 316.105 85.3759 316.235C85.5937 316.365 85.7678 316.553 85.8982 316.799C86.0287 317.044 86.0972 317.369 86.1037 317.774C86.1114 318.244 85.9989 318.648 85.7664 318.988C85.5413 319.32 85.2107 319.577 84.7748 319.757C84.3388 319.931 83.8195 320.017 83.2171 320.017H80.2382L80.1125 312.279H82.5893ZM82.8288 315.346C83.3197 315.346 83.6569 315.27 83.8404 315.119C84.0313 314.967 84.1244 314.747 84.1197 314.458C84.1149 314.161 83.9999 313.948 83.7747 313.818C83.5494 313.688 83.195 313.623 82.7116 313.623H81.819L81.847 315.346H82.8288ZM81.8681 316.647L81.9009 318.663H83.0054C83.5112 318.663 83.863 318.569 84.0607 318.381C84.2584 318.186 84.3546 317.929 84.3495 317.611C84.3463 317.416 84.2989 317.246 84.2073 317.102C84.1232 316.957 83.9763 316.845 83.7667 316.766C83.5572 316.687 83.2739 316.647 82.9169 316.647H81.8681ZM92.3197 320.017H87.7342L87.6086 312.279H92.194L92.2159 313.623H89.3151L89.3427 315.325H92.0427L92.0645 316.668H89.3645L89.3969 318.663H92.2977L92.3197 320.017ZM96.3954 312.279C97.4218 312.279 98.1729 312.496 98.6485 312.929C99.1315 313.356 99.379 313.945 99.3912 314.696C99.3968 315.036 99.35 315.361 99.2509 315.671C99.1517 315.975 98.9813 316.249 98.7399 316.495C98.5057 316.733 98.1927 316.921 97.8007 317.059C97.4087 317.196 96.9226 317.265 96.3425 317.265H95.6173L95.662 320.017H93.9773L93.8516 312.279H96.3954ZM96.328 313.623H95.5582L95.5955 315.921H96.1533C96.4731 315.921 96.7477 315.881 96.977 315.801C97.2063 315.722 97.3827 315.596 97.5064 315.422C97.63 315.249 97.6896 315.025 97.6851 314.75C97.6789 314.367 97.5665 314.085 97.3478 313.905C97.1291 313.717 96.7891 313.623 96.328 313.623ZM104.258 313.536C103.939 313.536 103.653 313.598 103.402 313.721C103.159 313.843 102.953 314.02 102.786 314.252C102.619 314.476 102.493 314.75 102.409 315.075C102.332 315.4 102.297 315.765 102.304 316.17C102.313 316.719 102.388 317.189 102.528 317.579C102.675 317.962 102.899 318.254 103.2 318.457C103.501 318.659 103.882 318.76 104.343 318.76C104.67 318.76 104.993 318.724 105.312 318.652C105.638 318.579 105.99 318.478 106.367 318.348L106.389 319.725C106.042 319.862 105.698 319.963 105.357 320.028C105.016 320.093 104.633 320.126 104.209 320.126C103.391 320.126 102.711 319.963 102.171 319.638C101.637 319.306 101.239 318.843 100.977 318.251C100.714 317.651 100.576 316.954 100.563 316.159C100.554 315.574 100.627 315.039 100.783 314.555C100.938 314.064 101.17 313.641 101.476 313.287C101.79 312.933 102.176 312.659 102.634 312.463C103.1 312.268 103.634 312.171 104.236 312.171C104.63 312.171 105.025 312.221 105.421 312.323C105.824 312.417 106.21 312.547 106.577 312.713L106.052 314.046C105.752 313.908 105.449 313.789 105.142 313.688C104.843 313.587 104.548 313.536 104.258 313.536ZM107.961 312.279H109.479L109.539 316.018C109.542 316.199 109.542 316.401 109.538 316.625C109.534 316.849 109.53 317.069 109.526 317.286C109.522 317.496 109.518 317.68 109.513 317.839C109.508 317.991 109.502 318.095 109.496 318.153H109.529L113.116 312.279H115.135L115.261 320.017H113.755L113.694 316.3C113.691 316.105 113.691 315.892 113.695 315.661C113.699 315.422 113.702 315.195 113.706 314.978C113.718 314.761 113.726 314.573 113.731 314.414C113.743 314.248 113.752 314.14 113.759 314.089H113.714L110.117 320.017H108.087L107.961 312.279ZM119.901 317.048L118.086 320.017H116.212L118.421 316.614C118.204 316.528 117.987 316.401 117.768 316.235C117.55 316.062 117.367 315.834 117.222 315.552C117.075 315.263 116.999 314.909 116.992 314.49C116.981 313.775 117.236 313.229 117.758 312.854C118.28 312.471 119.017 312.279 119.969 312.279H122.557L122.683 320.017H120.998L120.95 317.048H119.901ZM120.058 313.623C119.767 313.623 119.519 313.656 119.312 313.721C119.112 313.786 118.957 313.89 118.848 314.035C118.746 314.179 118.697 314.371 118.701 314.609C118.707 314.949 118.826 315.22 119.06 315.422C119.301 315.617 119.66 315.715 120.136 315.715H120.928L120.894 313.623H120.058Z" fill="white"/>
<path d="M59.652 406.641L59.08 404.771H56.22L55.648 406.641H53.855L56.627 398.754H58.662L61.445 406.641H59.652ZM58.112 401.548C58.0753 401.423 58.0276 401.266 57.969 401.075C57.9103 400.884 57.8516 400.69 57.793 400.492C57.7343 400.294 57.6866 400.122 57.65 399.975C57.6133 400.122 57.562 400.305 57.496 400.525C57.4373 400.738 57.3786 400.943 57.32 401.141C57.2686 401.332 57.2283 401.467 57.199 401.548L56.638 403.374H58.684L58.112 401.548ZM64.8817 398.787C65.5784 398.787 66.1614 398.853 66.6307 398.985C67.1074 399.11 67.463 399.319 67.6977 399.612C67.9397 399.898 68.0607 400.287 68.0607 400.778C68.0607 401.071 68.013 401.339 67.9177 401.581C67.8224 401.823 67.683 402.021 67.4997 402.175C67.3237 402.329 67.1074 402.428 66.8507 402.472V402.527C67.1147 402.578 67.353 402.67 67.5657 402.802C67.7784 402.934 67.947 403.125 68.0717 403.374C68.1964 403.623 68.2587 403.953 68.2587 404.364C68.2587 404.841 68.1414 405.251 67.9067 405.596C67.6794 405.933 67.3494 406.194 66.9167 406.377C66.484 406.553 65.9707 406.641 65.3767 406.641H62.4397V398.787H64.8817ZM65.0687 401.9C65.5527 401.9 65.8864 401.823 66.0697 401.669C66.2604 401.515 66.3557 401.291 66.3557 400.998C66.3557 400.697 66.2457 400.481 66.0257 400.349C65.8057 400.217 65.4574 400.151 64.9807 400.151H64.1007V401.9H65.0687ZM64.1007 403.22V405.266H65.1897C65.6884 405.266 66.0367 405.171 66.2347 404.98C66.4327 404.782 66.5317 404.522 66.5317 404.199C66.5317 404.001 66.4877 403.829 66.3997 403.682C66.319 403.535 66.176 403.422 65.9707 403.341C65.7654 403.26 65.4867 403.22 65.1347 403.22H64.1007ZM72.8553 406.641H71.1943V400.173H69.0603V398.787H74.9893V400.173H72.8553V406.641ZM83.1136 402.703C83.1136 403.312 83.0366 403.865 82.8826 404.364C82.7359 404.855 82.5086 405.281 82.2006 405.64C81.8999 405.999 81.5113 406.274 81.0346 406.465C80.5653 406.656 80.0116 406.751 79.3736 406.751C78.7356 406.751 78.1783 406.656 77.7016 406.465C77.2323 406.267 76.8436 405.992 76.5356 405.64C76.2349 405.281 76.0076 404.852 75.8536 404.353C75.7069 403.854 75.6336 403.301 75.6336 402.692C75.6336 401.878 75.7656 401.17 76.0296 400.569C76.3009 399.968 76.7116 399.502 77.2616 399.172C77.8189 398.835 78.5266 398.666 79.3846 398.666C80.2353 398.666 80.9356 398.835 81.4856 399.172C82.0356 399.502 82.4426 399.971 82.7066 400.58C82.9779 401.181 83.1136 401.889 83.1136 402.703ZM77.3826 402.703C77.3826 403.253 77.4523 403.726 77.5916 404.122C77.7309 404.518 77.9473 404.822 78.2406 405.035C78.5339 405.248 78.9116 405.354 79.3736 405.354C79.8503 405.354 80.2316 405.248 80.5176 405.035C80.8109 404.822 81.0236 404.518 81.1556 404.122C81.2949 403.726 81.3646 403.253 81.3646 402.703C81.3646 401.874 81.2106 401.225 80.9026 400.756C80.5946 400.287 80.0886 400.052 79.3846 400.052C78.9153 400.052 78.5339 400.158 78.2406 400.371C77.9473 400.584 77.7309 400.888 77.5916 401.284C77.4523 401.68 77.3826 402.153 77.3826 402.703ZM88.0625 406.641L86.1705 400.481H86.1265C86.1338 400.628 86.1448 400.848 86.1595 401.141C86.1742 401.434 86.1888 401.75 86.2035 402.087C86.2182 402.417 86.2255 402.718 86.2255 402.989V406.641H84.7405V398.787H87.0065L88.8655 404.793H88.8985L90.8675 398.787H93.1335V406.641H91.5825V402.923C91.5825 402.674 91.5862 402.388 91.5935 402.065C91.6082 401.742 91.6192 401.438 91.6265 401.152C91.6412 400.859 91.6522 400.639 91.6595 400.492H91.6155L89.5915 406.641H88.0625ZM99.9244 406.641L99.3524 404.771H96.4924L95.9204 406.641H94.1274L96.8994 398.754H98.9344L101.717 406.641H99.9244ZM98.3844 401.548C98.3478 401.423 98.3001 401.266 98.2414 401.075C98.1828 400.884 98.1241 400.69 98.0654 400.492C98.0068 400.294 97.9591 400.122 97.9224 399.975C97.8858 400.122 97.8344 400.305 97.7684 400.525C97.7098 400.738 97.6511 400.943 97.5924 401.141C97.5411 401.332 97.5008 401.467 97.4714 401.548L96.9104 403.374H98.9564L98.3844 401.548ZM104.964 406.641H103.303V400.173H101.169V398.787H107.098V400.173H104.964V406.641ZM108.309 398.787H109.805V402.582C109.805 402.765 109.801 402.971 109.794 403.198C109.787 403.425 109.779 403.649 109.772 403.869C109.765 404.082 109.757 404.269 109.75 404.43C109.743 404.584 109.735 404.69 109.728 404.749H109.761L113.391 398.787H115.382V406.641H113.897V402.868C113.897 402.67 113.901 402.454 113.908 402.219C113.915 401.977 113.923 401.746 113.93 401.526C113.945 401.306 113.956 401.115 113.963 400.954C113.978 400.785 113.989 400.675 113.996 400.624H113.952L110.311 406.641H108.309V398.787ZM122.788 400.624C122.788 401.152 122.601 401.577 122.227 401.9C121.853 402.223 121.376 402.424 120.797 402.505V402.538C121.515 402.611 122.065 402.813 122.447 403.143C122.835 403.466 123.03 403.887 123.03 404.408C123.03 404.863 122.905 405.27 122.656 405.629C122.406 405.981 122.036 406.256 121.545 406.454C121.053 406.652 120.445 406.751 119.719 406.751C119.125 406.751 118.597 406.714 118.135 406.641C117.68 406.568 117.284 406.461 116.947 406.322V404.925C117.174 405.035 117.431 405.13 117.717 405.211C118.003 405.284 118.292 405.343 118.586 405.387C118.879 405.424 119.15 405.442 119.4 405.442C120.096 405.442 120.599 405.343 120.907 405.145C121.222 404.94 121.38 404.654 121.38 404.287C121.38 403.913 121.152 403.642 120.698 403.473C120.243 403.297 119.631 403.209 118.861 403.209H118.124V401.911H118.784C119.407 401.911 119.891 401.871 120.236 401.79C120.58 401.709 120.822 401.592 120.962 401.438C121.101 401.284 121.171 401.101 121.171 400.888C121.171 400.617 121.05 400.404 120.808 400.25C120.573 400.089 120.217 400.008 119.741 400.008C119.337 400.008 118.956 400.067 118.597 400.184C118.245 400.301 117.915 400.455 117.607 400.646L116.881 399.535C117.152 399.359 117.438 399.209 117.739 399.084C118.047 398.952 118.384 398.853 118.751 398.787C119.117 398.714 119.524 398.677 119.972 398.677C120.566 398.677 121.072 398.761 121.49 398.93C121.908 399.099 122.227 399.33 122.447 399.623C122.674 399.909 122.788 400.243 122.788 400.624ZM129.304 406.641L128.732 404.771H125.872L125.3 406.641H123.507L126.279 398.754H128.314L131.097 406.641H129.304ZM127.764 401.548C127.728 401.423 127.68 401.266 127.621 401.075C127.563 400.884 127.504 400.69 127.445 400.492C127.387 400.294 127.339 400.122 127.302 399.975C127.266 400.122 127.214 400.305 127.148 400.525C127.09 400.738 127.031 400.943 126.972 401.141C126.921 401.332 126.881 401.467 126.851 401.548L126.29 403.374H128.336L127.764 401.548ZM139.473 405.321V408.929H137.867V406.641H132.092V398.787H133.753V405.255H136.646V398.787H138.307V405.321H139.473ZM140.686 398.787H142.182V402.582C142.182 402.765 142.178 402.971 142.171 403.198C142.163 403.425 142.156 403.649 142.149 403.869C142.141 404.082 142.134 404.269 142.127 404.43C142.119 404.584 142.112 404.69 142.105 404.749H142.138L145.768 398.787H147.759V406.641H146.274V402.868C146.274 402.67 146.277 402.454 146.285 402.219C146.292 401.977 146.299 401.746 146.307 401.526C146.321 401.306 146.332 401.115 146.34 400.954C146.354 400.785 146.365 400.675 146.373 400.624H146.329L142.688 406.641H140.686V398.787ZM152.381 403.627L150.544 406.641H148.696L150.929 403.187C150.717 403.099 150.504 402.971 150.291 402.802C150.079 402.626 149.903 402.395 149.763 402.109C149.624 401.816 149.554 401.456 149.554 401.031C149.554 400.305 149.815 399.751 150.335 399.37C150.856 398.981 151.586 398.787 152.524 398.787H155.076V406.641H153.415V403.627H152.381ZM152.59 400.151C152.304 400.151 152.059 400.184 151.853 400.25C151.655 400.316 151.501 400.422 151.391 400.569C151.289 400.716 151.237 400.91 151.237 401.152C151.237 401.497 151.351 401.772 151.578 401.977C151.813 402.175 152.165 402.274 152.634 402.274H153.415V400.151H152.59Z" fill="white"/>
<path d="M48.5809 505.423H46.6757L43.8939 501.471L43.807 505.423H42.1345L42.3059 497.629H43.9785L43.8954 501.406L46.814 497.629H48.5973L45.6351 501.373L48.5809 505.423ZM52.2732 497.629C53.2922 497.629 54.0296 497.847 54.4851 498.284C54.9483 498.713 55.1715 499.306 55.1549 500.063C55.1474 500.405 55.0885 500.733 54.9782 501.046C54.8681 501.351 54.6885 501.628 54.4394 501.875C54.1978 502.115 53.8798 502.305 53.4854 502.443C53.091 502.581 52.6058 502.65 52.0298 502.65H51.3099L51.2489 505.423H49.5764L49.7478 497.629H52.2732ZM52.1548 498.982H51.3906L51.3397 501.297H51.8935C52.211 501.297 52.4851 501.257 52.7158 501.177C52.9464 501.096 53.1264 500.969 53.2558 500.794C53.3852 500.62 53.4529 500.394 53.459 500.118C53.4675 499.732 53.3667 499.448 53.1565 499.266C52.9466 499.077 52.6127 498.982 52.1548 498.982ZM61.0838 505.423H56.5315L56.703 497.629H61.2553L61.2255 498.982H58.3457L58.308 500.696H60.9885L60.9587 502.05H58.2782L58.234 504.059H61.1139L61.0838 505.423ZM67.5698 505.423L67.0346 503.567H64.1548L63.538 505.423H61.7326L64.696 497.596H66.7451L69.3752 505.423H67.5698ZM66.1303 500.369C66.0961 500.245 66.0515 500.088 65.9966 499.899C65.9417 499.71 65.8869 499.517 65.8321 499.321C65.7774 499.124 65.7332 498.953 65.6994 498.808C65.6593 498.953 65.6036 499.135 65.5324 499.353C65.4686 499.564 65.4051 499.768 65.3417 499.965C65.2858 500.154 65.2423 500.289 65.211 500.369L64.6062 502.181H66.6664L66.1303 500.369ZM72.644 505.423H70.9715L71.1127 499.004H68.9639L68.9942 497.629H74.9643L74.934 499.004H72.7852L72.644 505.423ZM76.1838 497.629H77.6902L77.6073 501.395C77.6033 501.577 77.5952 501.781 77.5828 502.006C77.5705 502.232 77.5582 502.454 77.546 502.672C77.534 502.883 77.5225 503.069 77.5116 503.229C77.5009 503.382 77.4912 503.487 77.4825 503.545H77.5157L81.3011 497.629H83.3059L83.1344 505.423H81.6391L81.7215 501.679C81.7258 501.482 81.7342 501.267 81.7467 501.035C81.7594 500.794 81.7718 500.565 81.784 500.347C81.8036 500.129 81.8188 499.939 81.8297 499.779C81.8482 499.612 81.8617 499.503 81.8702 499.452H81.8259L78.0282 505.423H76.0123L76.1838 497.629ZM87.7612 497.629C88.4627 497.629 89.0483 497.694 89.518 497.825C89.9953 497.949 90.3489 498.156 90.5787 498.447C90.8162 498.731 90.9295 499.117 90.9188 499.605C90.9124 499.896 90.8586 500.161 90.7573 500.401C90.656 500.642 90.5114 500.838 90.3234 500.991C90.1428 501.144 89.9228 501.242 89.6634 501.286L89.6622 501.34C89.9269 501.391 90.1649 501.482 90.3762 501.613C90.5874 501.744 90.7531 501.933 90.8732 502.181C90.9933 502.428 91.0489 502.756 91.0399 503.163C91.0295 503.636 90.9024 504.044 90.6585 504.386C90.4223 504.721 90.0843 504.979 89.6446 505.161C89.2051 505.336 88.6863 505.423 88.0882 505.423H85.1308L85.3023 497.629H87.7612ZM87.8816 500.718C88.3689 500.718 88.7066 500.642 88.8945 500.489C89.0899 500.336 89.1908 500.114 89.1972 499.823C89.2037 499.524 89.0977 499.31 88.8791 499.179C88.6604 499.048 88.3111 498.982 87.8311 498.982H86.945L86.9068 500.718H87.8816ZM86.878 502.028L86.8334 504.059H87.9299C88.432 504.059 88.7849 503.964 88.9884 503.775C89.1921 503.578 89.2975 503.32 89.3045 503C89.3088 502.803 89.2683 502.632 89.1829 502.487C89.1049 502.341 88.9634 502.228 88.7584 502.148C88.5534 502.068 88.2736 502.028 87.9192 502.028H86.878Z" fill="white"/>
<path d="M139.436 550.264L140.932 550.264L140.932 554.059C140.932 554.242 140.929 554.447 140.921 554.675C140.914 554.902 140.907 555.126 140.899 555.346C140.892 555.558 140.885 555.745 140.877 555.907C140.87 556.061 140.863 556.167 140.855 556.226L140.888 556.226L144.518 550.264L146.509 550.264L146.509 558.118L145.024 558.118L145.024 554.345C145.024 554.147 145.028 553.93 145.035 553.696C145.043 553.454 145.05 553.223 145.057 553.003C145.072 552.783 145.083 552.592 145.09 552.431C145.105 552.262 145.116 552.152 145.123 552.101L145.079 552.101L141.438 558.118L139.436 558.118L139.436 550.264ZM151.814 558.118L149.922 551.958L149.878 551.958C149.885 552.104 149.896 552.324 149.911 552.618C149.926 552.911 149.94 553.226 149.955 553.564C149.97 553.894 149.977 554.194 149.977 554.466L149.977 558.118L148.492 558.118L148.492 550.264L150.758 550.264L152.617 556.27L152.65 556.27L154.619 550.264L156.885 550.264L156.885 558.118L155.334 558.118L155.334 554.4C155.334 554.15 155.338 553.864 155.345 553.542C155.36 553.219 155.371 552.915 155.378 552.629C155.393 552.335 155.404 552.115 155.411 551.969L155.367 551.969L153.343 558.118L151.814 558.118ZM158.869 550.264L160.365 550.264L160.365 554.059C160.365 554.242 160.361 554.447 160.354 554.675C160.347 554.902 160.339 555.126 160.332 555.346C160.325 555.558 160.317 555.745 160.31 555.907C160.303 556.061 160.295 556.167 160.288 556.226L160.321 556.226L163.951 550.264L165.942 550.264L165.942 558.118L164.457 558.118L164.457 554.345C164.457 554.147 164.461 553.93 164.468 553.696C164.475 553.454 164.483 553.223 164.49 553.003C164.505 552.783 164.516 552.592 164.523 552.431C164.538 552.262 164.549 552.152 164.556 552.101L164.512 552.101L160.871 558.118L158.869 558.118L158.869 550.264ZM174.074 550.264L174.074 556.732L175.119 556.732L175.119 560.406L173.513 560.406L173.513 558.118L168.596 558.118L168.596 560.406L166.99 560.406L166.99 556.732L167.595 556.732C167.8 556.321 167.998 555.888 168.189 555.434C168.379 554.979 168.555 554.491 168.717 553.971C168.885 553.45 169.036 552.885 169.168 552.277C169.3 551.661 169.41 550.99 169.498 550.264L174.074 550.264ZM170.818 551.65C170.766 552.031 170.693 552.438 170.598 552.871C170.502 553.296 170.389 553.732 170.257 554.18C170.132 554.627 169.993 555.067 169.839 555.5C169.685 555.932 169.52 556.343 169.344 556.732L172.413 556.732L172.413 551.65L170.818 551.65ZM178.129 554.037L175.489 550.264L177.205 550.264L179.746 554.07L179.746 550.264L181.297 550.264L181.297 554.07L183.838 550.264L185.554 550.264L182.914 554.037L185.708 558.118L183.926 558.118L181.297 554.136L181.297 558.118L179.746 558.118L179.746 554.136L177.117 558.118L175.335 558.118L178.129 554.037Z" fill="white"/>
<path d="M232.417 605.343H236.371C237.018 605.343 237.532 605.526 237.915 605.892C238.297 606.25 238.478 606.726 238.455 607.319L238.415 608.372C238.391 608.994 238.163 609.495 237.729 609.876C237.304 610.249 236.753 610.436 236.078 610.436H233.511L233.412 613.026H232.123L232.417 605.343ZM236.098 609.316C236.4 609.316 236.642 609.225 236.825 609.042C237.016 608.859 237.116 608.621 237.128 608.328L237.165 607.351C237.175 607.081 237.103 606.865 236.947 606.704C236.792 606.543 236.578 606.462 236.307 606.462H233.663L233.554 609.316H236.098ZM239.495 605.343H243.472C244.103 605.343 244.607 605.515 244.983 605.859C245.359 606.203 245.537 606.656 245.515 607.22L245.485 607.999C245.471 608.38 245.34 608.716 245.094 609.009C244.856 609.294 244.528 609.506 244.112 609.645L244.111 609.667C244.34 609.806 244.521 609.986 244.652 610.205C244.791 610.417 244.905 610.695 244.995 611.039L245.536 613.026H244.203L243.68 611.127C243.598 610.798 243.46 610.545 243.269 610.37C243.077 610.194 242.849 610.106 242.585 610.106H240.602L240.491 613.026H239.202L239.495 605.343ZM243.046 608.998C243.384 608.998 243.655 608.906 243.86 608.723C244.073 608.54 244.185 608.303 244.196 608.01L244.225 607.253C244.234 607.019 244.164 606.828 244.015 606.682C243.867 606.536 243.664 606.462 243.407 606.462H240.741L240.644 608.998H243.046Z" fill="white"/>
<path d="M1.43922 645.443L1.43922 637.589L7.65422 637.589L7.65422 645.443L5.99322 645.443L5.99322 638.975L3.10022 638.975L3.10022 645.443L1.43922 645.443ZM12.1435 637.589C13.1555 637.589 13.8925 637.809 14.3545 638.249C14.8238 638.682 15.0585 639.28 15.0585 640.042C15.0585 640.387 15.0072 640.717 14.9045 641.032C14.8018 641.34 14.6295 641.619 14.3875 641.868C14.1528 642.11 13.8412 642.301 13.4525 642.44C13.0638 642.58 12.5835 642.649 12.0115 642.649L11.2965 642.649L11.2965 645.443L9.63551 645.443L9.63551 637.589L12.1435 637.589ZM12.0555 638.953L11.2965 638.953L11.2965 641.285L11.8465 641.285C12.1618 641.285 12.4332 641.245 12.6605 641.164C12.8878 641.084 13.0638 640.955 13.1885 640.779C13.3132 640.603 13.3755 640.376 13.3755 640.097C13.3755 639.709 13.2692 639.423 13.0565 639.239C12.8438 639.049 12.5102 638.953 12.0555 638.953ZM16.5427 637.589L18.0387 637.589L18.0387 641.384C18.0387 641.568 18.0351 641.773 18.0277 642C18.0204 642.228 18.0131 642.451 18.0057 642.671C17.9984 642.884 17.9911 643.071 17.9837 643.232C17.9764 643.386 17.9691 643.493 17.9617 643.551L17.9947 643.551L21.6247 637.589L23.6157 637.589L23.6157 645.443L22.1307 645.443L22.1307 641.67C22.1307 641.472 22.1344 641.256 22.1417 641.021C22.1491 640.779 22.1564 640.548 22.1637 640.328C22.1784 640.108 22.1894 639.918 22.1967 639.756C22.2114 639.588 22.2224 639.478 22.2297 639.426L22.1857 639.426L18.5447 645.443L16.5427 645.443L16.5427 637.589ZM25.5984 645.443L25.5984 637.589L30.5594 637.589L30.5594 638.964L27.2594 638.964L27.2594 640.603L27.9194 640.603C28.6601 640.603 29.2651 640.706 29.7344 640.911C30.2111 641.117 30.5631 641.399 30.7904 641.758C31.0177 642.118 31.1314 642.528 31.1314 642.99C31.1314 643.504 31.0177 643.944 30.7904 644.31C30.5631 644.677 30.2111 644.959 29.7344 645.157C29.2577 645.348 28.6417 645.443 27.8864 645.443L25.5984 645.443ZM27.8204 644.079C28.3264 644.079 28.7224 643.999 29.0084 643.837C29.3017 643.676 29.4484 643.394 29.4484 642.99C29.4484 642.712 29.3751 642.499 29.2284 642.352C29.0891 642.206 28.8874 642.107 28.6234 642.055C28.3667 641.997 28.0551 641.967 27.6884 641.967L27.2594 641.967L27.2594 644.079L27.8204 644.079ZM32.613 645.443L32.613 637.589L34.274 637.589L34.274 640.603L34.813 640.603C35.539 640.603 36.1367 640.706 36.606 640.911C37.0754 641.117 37.42 641.399 37.64 641.758C37.8674 642.118 37.981 642.528 37.981 642.99C37.981 643.504 37.8674 643.944 37.64 644.31C37.4127 644.677 37.0607 644.959 36.584 645.157C36.1147 645.348 35.506 645.443 34.758 645.443L32.613 645.443ZM34.714 644.079C35.2054 644.079 35.5904 643.999 35.869 643.837C36.155 643.676 36.298 643.394 36.298 642.99C36.298 642.712 36.232 642.499 36.1 642.352C35.9754 642.206 35.7884 642.107 35.539 642.055C35.2897 641.997 34.989 641.967 34.637 641.967L34.274 641.967L34.274 644.079L34.714 644.079ZM38.938 645.443L38.938 637.589L40.599 637.589L40.599 645.443L38.938 645.443ZM48.7968 645.443L47.1358 645.443L47.1358 638.975L45.2108 638.975C45.1668 639.313 45.1191 639.679 45.0678 640.075C45.0238 640.471 44.9725 640.875 44.9138 641.285C44.8625 641.689 44.8075 642.074 44.7488 642.44C44.6901 642.8 44.6315 643.119 44.5728 643.397C44.4775 643.852 44.3491 644.241 44.1878 644.563C44.0338 644.886 43.8175 645.132 43.5388 645.3C43.2675 645.469 42.9118 645.553 42.4718 645.553C42.3251 645.553 42.1858 645.542 42.0538 645.52C41.9218 645.498 41.7971 645.469 41.6798 645.432L41.6798 644.068C41.7751 644.098 41.8668 644.123 41.9548 644.145C42.0501 644.167 42.1528 644.178 42.2628 644.178C42.4095 644.178 42.5305 644.131 42.6258 644.035C42.7211 643.94 42.8055 643.779 42.8788 643.551C42.9521 643.317 43.0255 642.994 43.0988 642.583C43.1355 642.407 43.1795 642.158 43.2308 641.835C43.2821 641.505 43.3408 641.12 43.4068 640.68C43.4801 640.233 43.5535 639.749 43.6268 639.228C43.7001 638.7 43.7698 638.154 43.8358 637.589L48.7968 637.589L48.7968 645.443ZM50.7781 645.443L50.7781 637.589L52.4391 637.589L52.4391 640.603L53.0991 640.603C53.8398 640.603 54.4448 640.706 54.9141 640.911C55.3908 641.117 55.7428 641.399 55.9701 641.758C56.1974 642.118 56.3111 642.528 56.3111 642.99C56.3111 643.504 56.1974 643.944 55.9701 644.31C55.7428 644.677 55.3908 644.959 54.9141 645.157C54.4374 645.348 53.8214 645.443 53.0661 645.443L50.7781 645.443ZM53.0001 644.079C53.5061 644.079 53.9021 643.999 54.1881 643.837C54.4814 643.676 54.6281 643.394 54.6281 642.99C54.6281 642.712 54.5548 642.499 54.4081 642.352C54.2688 642.206 54.0671 642.107 53.8031 642.055C53.5464 641.997 53.2348 641.967 52.8681 641.967L52.4391 641.967L52.4391 644.079L53.0001 644.079Z" fill="white"/>
</svg>
